# MagicaVoxel @ Ephtracy

# group
g P1L

# material
mtllib P1L.mtl
usemtl palette

# normals
vn -1 0 0
vn 1 0 0
vn 0 0 1
vn 0 0 -1
vn 0 -1 0
vn 0 1 0

# texcoords
vt 0.0605469 0.5
vt 0.0683594 0.5
vt 0.537109 0.5
vt 0.982422 0.5
vt 0.994141 0.5

# verts
v -20 9 -3
v -20 9 -5
v -20 11 -3
v -20 11 -5
v -19 8 -3
v -19 8 -5
v -19 9 -3
v -19 9 -5
v -19 11 -3
v -19 11 -5
v -19 12 -3
v -19 12 -5
v -17 7 -3
v -17 7 -5
v -17 8 -3
v -17 8 -5
v -17 12 -3
v -17 12 -5
v -17 13 -3
v -17 13 -5
v -15 9 -3
v -15 9 -4
v -15 11 -3
v -15 11 -4
v -8 9 3
v -8 9 -3
v -8 11 -3
v -8 11 -5
v -8 12 3
v -8 12 -3
v -8 12 -5
v -5 9 4
v -5 9 3
v -5 9 1
v -5 9 -0
v -5 12 4
v -5 12 3
v -5 12 1
v -5 12 -0
v -4 7 5
v -4 7 -1
v -4 9 4
v -4 9 -0
v -4 12 4
v -4 12 -0
v -4 13 5
v -4 13 -1
v -2 13 5
v -2 13 -1
v -2 17 5
v -2 17 -0
v -2 18 -0
v -2 18 -1
v -2 19 5
v -2 19 -1
v 2 13 4
v 2 13 -0
v 2 14 4
v 2 14 -0
v 7 9 1
v 7 9 -3
v 7 11 -3
v 7 11 -5
v 7 12 1
v 7 12 -3
v 7 12 -5
v -18 9 -3
v -18 9 -4
v -18 11 -3
v -18 11 -4
v -15 7 -3
v -15 7 -5
v -15 9 -3
v -15 9 -5
v -15 11 -3
v -15 11 -5
v -15 13 -3
v -15 13 -5
v -6 9 1
v -6 9 -3
v -6 11 -3
v -6 11 -5
v -6 12 1
v -6 12 -3
v -6 12 -5
v -1 13 4
v -1 13 -0
v -1 14 4
v -1 14 -0
v 3 13 5
v 3 13 -1
v 3 17 5
v 3 17 -0
v 3 18 -0
v 3 18 -1
v 3 19 5
v 3 19 -1
v 5 7 5
v 5 7 -1
v 5 9 4
v 5 9 -0
v 5 12 4
v 5 12 -0
v 5 13 5
v 5 13 -1
v 6 9 4
v 6 9 3
v 6 9 1
v 6 9 -0
v 6 12 4
v 6 12 3
v 6 12 1
v 6 12 -0
v 9 9 3
v 9 9 -3
v 9 11 -3
v 9 11 -5
v 9 12 3
v 9 12 -3
v 9 12 -5
v 11 9 -3
v 11 9 -5
v 11 11 -3
v 11 11 -5
v -4 7 5
v -4 13 5
v -2 13 5
v -2 17 5
v -2 19 5
v 3 13 5
v 3 17 5
v 3 19 5
v 5 7 5
v 5 13 5
v -5 9 4
v -5 12 4
v -4 9 4
v -4 12 4
v 5 9 4
v 5 12 4
v 6 9 4
v 6 12 4
v -8 9 3
v -8 12 3
v -5 9 3
v -5 12 3
v 6 9 3
v 6 12 3
v 9 9 3
v 9 12 3
v -1 13 -0
v -1 14 -0
v 2 13 -0
v 2 14 -0
v -20 9 -3
v -20 11 -3
v -19 8 -3
v -19 9 -3
v -19 11 -3
v -19 12 -3
v -18 9 -3
v -18 11 -3
v -17 7 -3
v -17 8 -3
v -17 12 -3
v -17 13 -3
v -15 7 -3
v -15 9 -3
v -15 11 -3
v -15 13 -3
v -14 9 -3
v -14 11 -3
v -8 9 -3
v -8 11 -3
v -6 9 -3
v -6 11 -3
v 7 9 -3
v 7 11 -3
v 9 9 -3
v 9 11 -3
v 11 9 -3
v 11 11 -3
v -18 9 -4
v -18 11 -4
v -15 9 -4
v -15 11 -4
v -1 13 4
v -1 14 4
v 2 13 4
v 2 14 4
v -6 9 1
v -6 12 1
v -5 9 1
v -5 12 1
v 6 9 1
v 6 12 1
v 7 9 1
v 7 12 1
v -5 9 -0
v -5 12 -0
v -4 9 -0
v -4 12 -0
v 5 9 -0
v 5 12 -0
v 6 9 -0
v 6 12 -0
v -4 7 -1
v -4 13 -1
v -2 13 -1
v -2 18 -1
v -2 19 -1
v -1 14 -1
v -1 15 -1
v -1 16 -1
v -1 17 -1
v 0 16 -1
v 0 17 -1
v 1 16 -1
v 1 17 -1
v 2 14 -1
v 2 15 -1
v 2 16 -1
v 2 17 -1
v 3 13 -1
v 3 18 -1
v 3 19 -1
v 5 7 -1
v 5 13 -1
v -20 9 -5
v -20 11 -5
v -19 8 -5
v -19 9 -5
v -19 11 -5
v -19 12 -5
v -17 7 -5
v -17 8 -5
v -17 12 -5
v -17 13 -5
v -15 7 -5
v -15 9 -5
v -15 11 -5
v -15 13 -5
v -14 9 -5
v -14 11 -5
v -8 9 -5
v -8 11 -5
v -8 12 -5
v -6 9 -5
v -6 11 -5
v -6 12 -5
v 7 9 -5
v 7 11 -5
v 7 12 -5
v 9 9 -5
v 9 11 -5
v 9 12 -5
v 11 9 -5
v 11 11 -5
v -4 7 5
v 5 7 5
v -4 7 -1
v 5 7 -1
v -17 7 -3
v -15 7 -3
v -17 7 -5
v -15 7 -5
v -19 8 -3
v -17 8 -3
v -19 8 -5
v -17 8 -5
v -5 9 4
v -4 9 4
v 5 9 4
v 6 9 4
v -8 9 3
v -5 9 3
v 6 9 3
v 9 9 3
v -6 9 1
v -5 9 1
v 6 9 1
v 7 9 1
v -5 9 -0
v -4 9 -0
v 5 9 -0
v 6 9 -0
v -20 9 -3
v -19 9 -3
v -15 9 -3
v -14 9 -3
v -8 9 -3
v -6 9 -3
v 7 9 -3
v 9 9 -3
v 11 9 -3
v -20 9 -5
v -19 9 -5
v -15 9 -5
v -14 9 -5
v -8 9 -5
v -6 9 -5
v 7 9 -5
v 9 9 -5
v 11 9 -5
v -18 11 -3
v -15 11 -3
v -18 11 -4
v -15 11 -4
v -1 14 4
v 2 14 4
v -1 14 -0
v 2 14 -0
v -18 9 -3
v -15 9 -3
v -18 9 -4
v -15 9 -4
v -20 11 -3
v -19 11 -3
v -15 11 -3
v -14 11 -3
v -8 11 -3
v -6 11 -3
v 7 11 -3
v 9 11 -3
v 11 11 -3
v -20 11 -5
v -19 11 -5
v -15 11 -5
v -14 11 -5
v -8 11 -5
v -6 11 -5
v 7 11 -5
v 9 11 -5
v 11 11 -5
v -5 12 4
v -4 12 4
v 5 12 4
v 6 12 4
v -8 12 3
v -5 12 3
v 6 12 3
v 9 12 3
v -6 12 1
v -5 12 1
v 6 12 1
v 7 12 1
v -5 12 -0
v -4 12 -0
v 5 12 -0
v 6 12 -0
v -19 12 -3
v -17 12 -3
v -8 12 -3
v -6 12 -3
v 7 12 -3
v 9 12 -3
v -19 12 -5
v -17 12 -5
v -8 12 -5
v -6 12 -5
v 7 12 -5
v 9 12 -5
v -4 13 5
v -2 13 5
v 3 13 5
v 5 13 5
v -1 13 4
v 2 13 4
v -1 13 -0
v 2 13 -0
v -4 13 -1
v -2 13 -1
v 3 13 -1
v 5 13 -1
v -17 13 -3
v -15 13 -3
v -17 13 -5
v -15 13 -5
v -2 19 5
v 3 19 5
v -2 19 -1
v 3 19 -1

# faces
f 3/2/1 2/2/1 1/2/1
f 4/2/1 2/2/1 3/2/1
f 7/2/1 6/2/1 5/2/1
f 8/2/1 6/2/1 7/2/1
f 11/2/1 10/2/1 9/2/1
f 12/2/1 10/2/1 11/2/1
f 15/2/1 14/2/1 13/2/1
f 16/2/1 14/2/1 15/2/1
f 19/2/1 18/2/1 17/2/1
f 20/2/1 18/2/1 19/2/1
f 23/2/1 22/2/1 21/2/1
f 24/2/1 22/2/1 23/2/1
f 27/2/1 26/2/1 25/2/1
f 29/2/1 27/2/1 25/2/1
f 30/1/1 28/1/1 27/1/1
f 30/2/1 27/2/1 29/2/1
f 31/1/1 28/1/1 30/1/1
f 36/2/1 33/2/1 32/2/1
f 37/2/1 33/2/1 36/2/1
f 38/2/1 35/2/1 34/2/1
f 39/2/1 35/2/1 38/2/1
f 42/2/1 41/2/1 40/2/1
f 43/2/1 41/2/1 42/2/1
f 44/2/1 42/2/1 40/2/1
f 45/2/1 41/2/1 43/2/1
f 46/2/1 44/2/1 40/2/1
f 46/2/1 45/2/1 44/2/1
f 47/2/1 41/2/1 45/2/1
f 47/2/1 45/2/1 46/2/1
f 50/1/1 49/1/1 48/1/1
f 51/1/1 49/1/1 50/1/1
f 52/5/1 51/5/1 50/5/1
f 52/1/1 49/1/1 51/1/1
f 53/1/1 49/1/1 52/1/1
f 54/5/1 52/5/1 50/5/1
f 54/5/1 53/5/1 52/5/1
f 55/5/1 53/5/1 54/5/1
f 58/1/1 57/1/1 56/1/1
f 59/1/1 57/1/1 58/1/1
f 62/2/1 61/2/1 60/2/1
f 64/2/1 62/2/1 60/2/1
f 65/1/1 63/1/1 62/1/1
f 65/2/1 62/2/1 64/2/1
f 66/1/1 63/1/1 65/1/1
f 67/2/2 68/2/2 69/2/2
f 69/2/2 68/2/2 70/2/2
f 71/2/2 72/2/2 73/2/2
f 73/2/2 72/2/2 74/2/2
f 75/2/2 76/2/2 77/2/2
f 77/2/2 76/2/2 78/2/2
f 79/2/2 80/2/2 81/2/2
f 79/2/2 81/2/2 83/2/2
f 81/1/2 82/1/2 84/1/2
f 83/2/2 81/2/2 84/2/2
f 84/1/2 82/1/2 85/1/2
f 86/1/2 87/1/2 88/1/2
f 88/1/2 87/1/2 89/1/2
f 90/1/2 91/1/2 92/1/2
f 92/1/2 91/1/2 93/1/2
f 92/5/2 93/5/2 94/5/2
f 93/1/2 91/1/2 94/1/2
f 94/1/2 91/1/2 95/1/2
f 92/5/2 94/5/2 96/5/2
f 94/5/2 95/5/2 96/5/2
f 96/5/2 95/5/2 97/5/2
f 98/2/2 99/2/2 100/2/2
f 100/2/2 99/2/2 101/2/2
f 98/2/2 100/2/2 102/2/2
f 101/2/2 99/2/2 103/2/2
f 98/2/2 102/2/2 104/2/2
f 102/2/2 103/2/2 104/2/2
f 103/2/2 99/2/2 105/2/2
f 104/2/2 103/2/2 105/2/2
f 106/2/2 107/2/2 110/2/2
f 110/2/2 107/2/2 111/2/2
f 108/2/2 109/2/2 112/2/2
f 112/2/2 109/2/2 113/2/2
f 114/2/2 115/2/2 116/2/2
f 114/2/2 116/2/2 118/2/2
f 116/1/2 117/1/2 119/1/2
f 118/2/2 116/2/2 119/2/2
f 119/1/2 117/1/2 120/1/2
f 121/3/2 122/3/2 123/3/2
f 123/3/2 122/3/2 124/3/2
f 127/2/3 126/2/3 125/2/3
f 130/2/3 127/2/3 125/2/3
f 130/1/3 128/1/3 127/1/3
f 131/5/3 129/5/3 128/5/3
f 131/1/3 128/1/3 130/1/3
f 132/5/3 129/5/3 131/5/3
f 133/2/3 130/2/3 125/2/3
f 134/2/3 130/2/3 133/2/3
f 137/2/3 136/2/3 135/2/3
f 138/2/3 136/2/3 137/2/3
f 141/2/3 140/2/3 139/2/3
f 142/2/3 140/2/3 141/2/3
f 145/2/3 144/2/3 143/2/3
f 146/2/3 144/2/3 145/2/3
f 149/2/3 148/2/3 147/2/3
f 150/2/3 148/2/3 149/2/3
f 153/1/3 152/1/3 151/1/3
f 154/1/3 152/1/3 153/1/3
f 158/2/3 156/2/3 155/2/3
f 159/2/3 156/2/3 158/2/3
f 161/2/3 158/2/3 157/2/3
f 161/2/3 160/2/3 159/2/3
f 161/2/3 159/2/3 158/2/3
f 162/2/3 160/2/3 161/2/3
f 164/2/3 161/2/3 157/2/3
f 165/2/3 160/2/3 162/2/3
f 167/2/3 164/2/3 163/2/3
f 168/2/3 161/2/3 164/2/3
f 168/2/3 164/2/3 167/2/3
f 169/2/3 166/2/3 165/2/3
f 169/2/3 165/2/3 162/2/3
f 170/2/3 166/2/3 169/2/3
f 171/2/3 169/2/3 168/2/3
f 172/2/3 169/2/3 171/2/3
f 173/3/3 172/3/3 171/3/3
f 174/3/3 172/3/3 173/3/3
f 177/3/3 176/3/3 175/3/3
f 178/3/3 176/3/3 177/3/3
f 181/3/3 180/3/3 179/3/3
f 182/3/3 180/3/3 181/3/3
f 185/2/3 184/2/3 183/2/3
f 186/2/3 184/2/3 185/2/3
f 187/1/4 188/1/4 189/1/4
f 189/1/4 188/1/4 190/1/4
f 191/2/4 192/2/4 193/2/4
f 193/2/4 192/2/4 194/2/4
f 195/2/4 196/2/4 197/2/4
f 197/2/4 196/2/4 198/2/4
f 199/2/4 200/2/4 201/2/4
f 201/2/4 200/2/4 202/2/4
f 203/2/4 204/2/4 205/2/4
f 205/2/4 204/2/4 206/2/4
f 207/2/4 208/2/4 209/2/4
f 209/1/4 210/1/4 212/1/4
f 212/1/4 210/1/4 213/1/4
f 213/1/4 210/1/4 214/1/4
f 214/1/4 210/1/4 215/1/4
f 213/1/4 214/1/4 216/1/4
f 214/5/4 215/5/4 216/5/4
f 215/1/4 210/1/4 217/1/4
f 216/5/4 215/5/4 217/5/4
f 213/1/4 216/1/4 218/1/4
f 216/1/4 217/1/4 218/1/4
f 217/1/4 210/1/4 219/1/4
f 218/1/4 217/1/4 219/1/4
f 209/1/4 212/1/4 220/1/4
f 212/5/4 213/5/4 220/5/4
f 213/1/4 218/1/4 221/1/4
f 220/5/4 213/5/4 221/5/4
f 218/5/4 219/5/4 222/5/4
f 221/1/4 218/1/4 222/1/4
f 219/1/4 210/1/4 223/1/4
f 222/5/4 219/5/4 223/5/4
f 207/2/4 209/2/4 224/2/4
f 221/1/4 222/1/4 224/1/4
f 222/1/4 223/1/4 224/1/4
f 209/1/4 220/1/4 224/1/4
f 220/1/4 221/1/4 224/1/4
f 223/1/4 210/1/4 225/1/4
f 224/1/4 223/1/4 225/1/4
f 210/5/4 211/5/4 225/5/4
f 225/5/4 211/5/4 226/5/4
f 207/2/4 224/2/4 227/2/4
f 227/2/4 224/2/4 228/2/4
f 229/2/4 230/2/4 232/2/4
f 232/2/4 230/2/4 233/2/4
f 231/2/4 232/2/4 236/2/4
f 233/2/4 234/2/4 236/2/4
f 232/2/4 233/2/4 236/2/4
f 236/2/4 234/2/4 237/2/4
f 235/2/4 236/2/4 239/2/4
f 237/2/4 238/2/4 239/2/4
f 236/2/4 237/2/4 239/2/4
f 239/2/4 238/2/4 240/2/4
f 240/2/4 238/2/4 241/2/4
f 241/2/4 238/2/4 242/2/4
f 240/2/4 241/2/4 243/2/4
f 243/2/4 241/2/4 244/2/4
f 243/3/4 244/3/4 245/3/4
f 245/3/4 244/3/4 246/3/4
f 245/1/4 246/1/4 248/1/4
f 246/1/4 247/1/4 248/1/4
f 248/1/4 247/1/4 249/1/4
f 249/1/4 247/1/4 250/1/4
f 248/3/4 249/3/4 251/3/4
f 251/3/4 249/3/4 252/3/4
f 251/1/4 252/1/4 254/1/4
f 252/1/4 253/1/4 254/1/4
f 254/1/4 253/1/4 255/1/4
f 255/1/4 253/1/4 256/1/4
f 254/3/4 255/3/4 257/3/4
f 257/3/4 255/3/4 258/3/4
f 261/2/5 260/2/5 259/2/5
f 262/2/5 260/2/5 261/2/5
f 265/2/5 264/2/5 263/2/5
f 266/2/5 264/2/5 265/2/5
f 269/2/5 268/2/5 267/2/5
f 270/2/5 268/2/5 269/2/5
f 276/2/5 272/2/5 271/2/5
f 277/2/5 274/2/5 273/2/5
f 279/2/5 276/2/5 275/2/5
f 280/2/5 272/2/5 276/2/5
f 280/2/5 276/2/5 279/2/5
f 281/2/5 278/2/5 277/2/5
f 281/2/5 277/2/5 273/2/5
f 282/2/5 278/2/5 281/2/5
f 283/2/5 272/2/5 280/2/5
f 284/2/5 272/2/5 283/2/5
f 285/2/5 281/2/5 273/2/5
f 286/2/5 281/2/5 285/2/5
f 291/2/5 279/2/5 275/2/5
f 292/2/5 279/2/5 291/2/5
f 293/2/5 278/2/5 282/2/5
f 294/2/5 278/2/5 293/2/5
f 296/2/5 288/2/5 287/2/5
f 297/2/5 288/2/5 296/2/5
f 298/2/5 290/2/5 289/2/5
f 299/3/5 291/3/5 290/3/5
f 299/2/5 290/2/5 298/2/5
f 300/1/5 292/1/5 291/1/5
f 300/3/5 291/3/5 299/3/5
f 301/3/5 293/3/5 292/3/5
f 301/1/5 292/1/5 300/1/5
f 302/1/5 294/1/5 293/1/5
f 302/3/5 293/3/5 301/3/5
f 303/3/5 295/3/5 294/3/5
f 303/1/5 294/1/5 302/1/5
f 304/3/5 295/3/5 303/3/5
f 307/2/5 306/2/5 305/2/5
f 308/2/5 306/2/5 307/2/5
f 311/1/5 310/1/5 309/1/5
f 312/1/5 310/1/5 311/1/5
f 313/2/6 314/2/6 315/2/6
f 315/2/6 314/2/6 316/2/6
f 317/2/6 318/2/6 326/2/6
f 326/2/6 318/2/6 327/2/6
f 319/2/6 320/2/6 328/2/6
f 320/3/6 321/3/6 329/3/6
f 328/2/6 320/2/6 329/2/6
f 329/3/6 321/3/6 330/3/6
f 322/3/6 323/3/6 331/3/6
f 331/3/6 323/3/6 332/3/6
f 324/3/6 325/3/6 333/3/6
f 333/3/6 325/3/6 334/3/6
f 335/2/6 336/2/6 340/2/6
f 337/2/6 338/2/6 341/2/6
f 339/2/6 340/2/6 343/2/6
f 340/2/6 336/2/6 344/2/6
f 343/2/6 340/2/6 344/2/6
f 341/2/6 342/2/6 345/2/6
f 337/2/6 341/2/6 345/2/6
f 345/2/6 342/2/6 346/2/6
f 344/2/6 336/2/6 347/2/6
f 347/2/6 336/2/6 348/2/6
f 337/2/6 345/2/6 349/2/6
f 349/2/6 345/2/6 350/2/6
f 339/2/6 343/2/6 353/2/6
f 353/2/6 343/2/6 354/2/6
f 346/2/6 342/2/6 355/2/6
f 355/2/6 342/2/6 356/2/6
f 351/2/6 352/2/6 357/2/6
f 357/2/6 352/2/6 358/2/6
f 353/1/6 354/1/6 359/1/6
f 359/1/6 354/1/6 360/1/6
f 355/1/6 356/1/6 361/1/6
f 361/1/6 356/1/6 362/1/6
f 367/4/6 368/4/6 369/4/6
f 369/4/6 368/4/6 370/4/6
f 363/2/6 364/2/6 371/2/6
f 371/2/6 364/2/6 372/2/6
f 365/2/6 366/2/6 373/2/6
f 373/2/6 366/2/6 374/2/6
f 375/2/6 376/2/6 377/2/6
f 377/2/6 376/2/6 378/2/6
f 379/5/6 380/5/6 381/5/6
f 381/5/6 380/5/6 382/5/6
