# MagicaVoxel @ Ephtracy

# group
g P1W

# material
mtllib P1W.mtl
usemtl palette

# normals
vn -1 0 0
vn 1 0 0
vn 0 0 1
vn 0 0 -1
vn 0 -1 0
vn 0 1 0

# texcoords
vt 0.0605469 0.5
vt 0.0683594 0.5
vt 0.537109 0.5
vt 0.982422 0.5
vt 0.994141 0.5

# verts
v -20 19 2
v -20 19 -0
v -20 21 2
v -20 21 -0
v -19 19 3
v -19 19 2
v -19 19 -0
v -19 19 -1
v -19 21 3
v -19 21 2
v -19 21 -0
v -19 21 -1
v -17 19 4
v -17 19 3
v -17 19 -1
v -17 19 -2
v -17 21 4
v -17 21 3
v -17 21 -1
v -17 21 -2
v -15 19 2
v -15 19 -0
v -15 20 2
v -15 20 -0
v -8 13 3
v -8 13 -0
v -8 19 3
v -8 19 2
v -8 19 -0
v -8 21 3
v -8 21 2
v -5 12 3
v -5 12 -0
v -5 13 3
v -5 13 -0
v -5 15 3
v -5 15 -0
v -5 16 3
v -5 16 -0
v -4 7 5
v -4 7 -1
v -4 12 3
v -4 12 -0
v -4 13 5
v -4 13 3
v -4 13 -0
v -4 13 -1
v -2 13 5
v -2 13 -1
v -2 17 5
v -2 17 -0
v -2 18 -0
v -2 18 -1
v -2 19 5
v -2 19 2
v -2 19 -0
v -2 19 -1
v 2 13 4
v 2 13 -0
v 2 14 4
v 2 14 -0
v 5 13 3
v 5 13 -0
v 5 16 3
v 5 16 -0
v 7 15 3
v 7 15 -0
v 7 19 3
v 7 19 2
v 7 19 -0
v 7 21 3
v 7 21 2
v -18 19 2
v -18 19 -0
v -18 20 2
v -18 20 -0
v -15 19 4
v -15 19 2
v -15 19 -0
v -15 19 -2
v -15 21 4
v -15 21 2
v -15 21 -0
v -15 21 -2
v -6 15 3
v -6 15 -0
v -6 19 3
v -6 19 2
v -6 19 -0
v -6 21 3
v -6 21 2
v -4 13 3
v -4 13 -0
v -4 16 3
v -4 16 -0
v -1 13 4
v -1 13 -0
v -1 14 4
v -1 14 -0
v 3 13 5
v 3 13 -1
v 3 17 5
v 3 17 -0
v 3 18 -0
v 3 18 -1
v 3 19 5
v 3 19 2
v 3 19 -0
v 3 19 -1
v 5 7 5
v 5 7 -1
v 5 12 3
v 5 12 -0
v 5 13 5
v 5 13 3
v 5 13 -0
v 5 13 -1
v 6 12 3
v 6 12 -0
v 6 13 3
v 6 13 -0
v 6 15 3
v 6 15 -0
v 6 16 3
v 6 16 -0
v 9 13 3
v 9 13 -0
v 9 19 3
v 9 19 2
v 9 19 -0
v 9 21 3
v 9 21 2
v 11 19 2
v 11 19 -0
v 11 21 2
v 11 21 -0
v -4 7 5
v -4 13 5
v -2 13 5
v -2 17 5
v -2 19 5
v 3 13 5
v 3 17 5
v 3 19 5
v 5 7 5
v 5 13 5
v -17 19 4
v -17 21 4
v -15 19 4
v -15 21 4
v -19 19 3
v -19 21 3
v -17 19 3
v -17 21 3
v -8 13 3
v -8 19 3
v -8 21 3
v -6 15 3
v -6 19 3
v -6 21 3
v -5 12 3
v -5 13 3
v -5 15 3
v -5 16 3
v -4 12 3
v -4 13 3
v -4 16 3
v 5 12 3
v 5 13 3
v 5 16 3
v 6 12 3
v 6 13 3
v 6 15 3
v 6 16 3
v 7 15 3
v 7 19 3
v 7 21 3
v 9 13 3
v 9 19 3
v 9 21 3
v -20 19 2
v -20 21 2
v -19 19 2
v -19 21 2
v -15 19 2
v -15 21 2
v -14 19 2
v -14 21 2
v -8 19 2
v -8 21 2
v -6 19 2
v -6 21 2
v -2 19 2
v 3 19 2
v 7 19 2
v 7 21 2
v 9 19 2
v 9 21 2
v 11 19 2
v 11 21 2
v -18 19 -0
v -18 20 -0
v -15 19 -0
v -15 20 -0
v -1 13 -0
v -1 14 -0
v 2 13 -0
v 2 14 -0
v -1 13 4
v -1 14 4
v 2 13 4
v 2 14 4
v -18 19 2
v -18 20 2
v -15 19 2
v -15 20 2
v -20 19 -0
v -20 21 -0
v -19 19 -0
v -19 21 -0
v -15 19 -0
v -15 21 -0
v -14 19 -0
v -14 21 -0
v -8 13 -0
v -8 19 -0
v -8 21 -0
v -6 15 -0
v -6 19 -0
v -6 21 -0
v -5 12 -0
v -5 13 -0
v -5 15 -0
v -5 16 -0
v -4 12 -0
v -4 13 -0
v -4 16 -0
v -2 19 -0
v 3 19 -0
v 5 12 -0
v 5 13 -0
v 5 16 -0
v 6 12 -0
v 6 13 -0
v 6 15 -0
v 6 16 -0
v 7 15 -0
v 7 19 -0
v 7 21 -0
v 9 13 -0
v 9 19 -0
v 9 21 -0
v 11 19 -0
v 11 21 -0
v -19 19 -1
v -19 21 -1
v -17 19 -1
v -17 21 -1
v -4 7 -1
v -4 13 -1
v -2 13 -1
v -2 18 -1
v -2 19 -1
v -1 14 -1
v -1 15 -1
v -1 16 -1
v -1 17 -1
v 0 16 -1
v 0 17 -1
v 1 16 -1
v 1 17 -1
v 2 14 -1
v 2 15 -1
v 2 16 -1
v 2 17 -1
v 3 13 -1
v 3 18 -1
v 3 19 -1
v 5 7 -1
v 5 13 -1
v -17 19 -2
v -17 21 -2
v -15 19 -2
v -15 21 -2
v -4 7 5
v 5 7 5
v -4 7 -1
v 5 7 -1
v -5 12 3
v -4 12 3
v 5 12 3
v 6 12 3
v -5 12 -0
v -4 12 -0
v 5 12 -0
v 6 12 -0
v -8 13 3
v -5 13 3
v 6 13 3
v 9 13 3
v -8 13 -0
v -5 13 -0
v 6 13 -0
v 9 13 -0
v -1 14 4
v 2 14 4
v -1 14 -0
v 2 14 -0
v -17 19 4
v -15 19 4
v -19 19 3
v -17 19 3
v -20 19 2
v -19 19 2
v -18 19 2
v -15 19 2
v -14 19 2
v -8 19 2
v -6 19 2
v -2 19 2
v 3 19 2
v 7 19 2
v 9 19 2
v 11 19 2
v -20 19 -0
v -19 19 -0
v -18 19 -0
v -15 19 -0
v -14 19 -0
v -8 19 -0
v -6 19 -0
v -2 19 -0
v 3 19 -0
v 7 19 -0
v 9 19 -0
v 11 19 -0
v -19 19 -1
v -17 19 -1
v -17 19 -2
v -15 19 -2
v -18 20 2
v -15 20 2
v -18 20 -0
v -15 20 -0
v -4 13 5
v -2 13 5
v 3 13 5
v 5 13 5
v -1 13 4
v 2 13 4
v -4 13 3
v 5 13 3
v -4 13 -0
v -1 13 -0
v 2 13 -0
v 5 13 -0
v -4 13 -1
v -2 13 -1
v 3 13 -1
v 5 13 -1
v -6 15 3
v -5 15 3
v 6 15 3
v 7 15 3
v -6 15 -0
v -5 15 -0
v 6 15 -0
v 7 15 -0
v -5 16 3
v -4 16 3
v 5 16 3
v 6 16 3
v -5 16 -0
v -4 16 -0
v 5 16 -0
v 6 16 -0
v -2 19 5
v 3 19 5
v -2 19 2
v 3 19 2
v -2 19 -0
v 3 19 -0
v -2 19 -1
v 3 19 -1
v -17 21 4
v -15 21 4
v -19 21 3
v -17 21 3
v -8 21 3
v -6 21 3
v 7 21 3
v 9 21 3
v -20 21 2
v -19 21 2
v -15 21 2
v -14 21 2
v -8 21 2
v -6 21 2
v 7 21 2
v 9 21 2
v 11 21 2
v -20 21 -0
v -19 21 -0
v -15 21 -0
v -14 21 -0
v -8 21 -0
v -6 21 -0
v 7 21 -0
v 9 21 -0
v 11 21 -0
v -19 21 -1
v -17 21 -1
v -17 21 -2
v -15 21 -2

# faces
f 3/2/1 2/2/1 1/2/1
f 4/2/1 2/2/1 3/2/1
f 9/2/1 6/2/1 5/2/1
f 10/2/1 6/2/1 9/2/1
f 11/2/1 8/2/1 7/2/1
f 12/2/1 8/2/1 11/2/1
f 17/2/1 14/2/1 13/2/1
f 18/2/1 14/2/1 17/2/1
f 19/2/1 16/2/1 15/2/1
f 20/2/1 16/2/1 19/2/1
f 23/2/1 22/2/1 21/2/1
f 24/2/1 22/2/1 23/2/1
f 27/2/1 26/2/1 25/2/1
f 28/2/1 26/2/1 27/2/1
f 29/2/1 26/2/1 28/2/1
f 30/1/1 28/1/1 27/1/1
f 31/1/1 28/1/1 30/1/1
f 34/2/1 33/2/1 32/2/1
f 35/2/1 33/2/1 34/2/1
f 38/2/1 37/2/1 36/2/1
f 39/2/1 37/2/1 38/2/1
f 42/2/1 41/2/1 40/2/1
f 43/2/1 41/2/1 42/2/1
f 44/2/1 42/2/1 40/2/1
f 45/2/1 42/2/1 44/2/1
f 46/2/1 41/2/1 43/2/1
f 47/2/1 41/2/1 46/2/1
f 50/1/1 49/1/1 48/1/1
f 51/1/1 49/1/1 50/1/1
f 52/5/1 51/5/1 50/5/1
f 52/1/1 49/1/1 51/1/1
f 53/1/1 49/1/1 52/1/1
f 54/5/1 52/5/1 50/5/1
f 54/5/1 53/5/1 52/5/1
f 55/5/1 53/5/1 54/5/1
f 56/5/1 53/5/1 55/5/1
f 57/5/1 53/5/1 56/5/1
f 60/1/1 59/1/1 58/1/1
f 61/1/1 59/1/1 60/1/1
f 64/2/1 63/2/1 62/2/1
f 65/2/1 63/2/1 64/2/1
f 68/2/1 67/2/1 66/2/1
f 69/2/1 67/2/1 68/2/1
f 70/2/1 67/2/1 69/2/1
f 71/1/1 69/1/1 68/1/1
f 72/1/1 69/1/1 71/1/1
f 73/2/2 74/2/2 75/2/2
f 75/2/2 74/2/2 76/2/2
f 77/2/2 78/2/2 81/2/2
f 81/2/2 78/2/2 82/2/2
f 79/2/2 80/2/2 83/2/2
f 83/2/2 80/2/2 84/2/2
f 85/2/2 86/2/2 87/2/2
f 87/2/2 86/2/2 88/2/2
f 88/2/2 86/2/2 89/2/2
f 87/1/2 88/1/2 90/1/2
f 90/1/2 88/1/2 91/1/2
f 92/2/2 93/2/2 94/2/2
f 94/2/2 93/2/2 95/2/2
f 96/1/2 97/1/2 98/1/2
f 98/1/2 97/1/2 99/1/2
f 100/1/2 101/1/2 102/1/2
f 102/1/2 101/1/2 103/1/2
f 102/5/2 103/5/2 104/5/2
f 103/1/2 101/1/2 104/1/2
f 104/1/2 101/1/2 105/1/2
f 102/5/2 104/5/2 106/5/2
f 104/5/2 105/5/2 106/5/2
f 106/5/2 105/5/2 107/5/2
f 107/5/2 105/5/2 108/5/2
f 108/5/2 105/5/2 109/5/2
f 110/2/2 111/2/2 112/2/2
f 112/2/2 111/2/2 113/2/2
f 110/2/2 112/2/2 114/2/2
f 114/2/2 112/2/2 115/2/2
f 113/2/2 111/2/2 116/2/2
f 116/2/2 111/2/2 117/2/2
f 118/2/2 119/2/2 120/2/2
f 120/2/2 119/2/2 121/2/2
f 122/2/2 123/2/2 124/2/2
f 124/2/2 123/2/2 125/2/2
f 126/2/2 127/2/2 128/2/2
f 128/2/2 127/2/2 129/2/2
f 129/2/2 127/2/2 130/2/2
f 128/1/2 129/1/2 131/1/2
f 131/1/2 129/1/2 132/1/2
f 133/3/2 134/3/2 135/3/2
f 135/3/2 134/3/2 136/3/2
f 139/2/3 138/2/3 137/2/3
f 142/2/3 139/2/3 137/2/3
f 142/1/3 140/1/3 139/1/3
f 143/5/3 141/5/3 140/5/3
f 143/1/3 140/1/3 142/1/3
f 144/5/3 141/5/3 143/5/3
f 145/2/3 142/2/3 137/2/3
f 146/2/3 142/2/3 145/2/3
f 149/2/3 148/2/3 147/2/3
f 150/2/3 148/2/3 149/2/3
f 153/2/3 152/2/3 151/2/3
f 154/2/3 152/2/3 153/2/3
f 158/2/3 156/2/3 155/2/3
f 159/1/3 157/1/3 156/1/3
f 159/2/3 156/2/3 158/2/3
f 160/1/3 157/1/3 159/1/3
f 162/2/3 158/2/3 155/2/3
f 163/2/3 158/2/3 162/2/3
f 165/2/3 162/2/3 161/2/3
f 165/2/3 164/2/3 163/2/3
f 165/2/3 163/2/3 162/2/3
f 166/2/3 164/2/3 165/2/3
f 167/2/3 164/2/3 166/2/3
f 171/2/3 169/2/3 168/2/3
f 171/2/3 170/2/3 169/2/3
f 172/2/3 170/2/3 171/2/3
f 173/2/3 170/2/3 172/2/3
f 174/2/3 170/2/3 173/2/3
f 175/2/3 173/2/3 172/2/3
f 178/2/3 175/2/3 172/2/3
f 178/2/3 176/2/3 175/2/3
f 179/1/3 177/1/3 176/1/3
f 179/2/3 176/2/3 178/2/3
f 180/1/3 177/1/3 179/1/3
f 183/2/3 182/2/3 181/2/3
f 184/2/3 182/2/3 183/2/3
f 187/2/3 186/2/3 185/2/3
f 188/2/3 186/2/3 187/2/3
f 189/3/3 188/3/3 187/3/3
f 190/3/3 188/3/3 189/3/3
f 193/3/3 192/3/3 191/3/3
f 194/3/3 192/3/3 193/3/3
f 195/3/3 192/3/3 194/3/3
f 196/3/3 192/3/3 195/3/3
f 199/3/3 198/3/3 197/3/3
f 200/3/3 198/3/3 199/3/3
f 203/2/3 202/2/3 201/2/3
f 204/2/3 202/2/3 203/2/3
f 207/1/3 206/1/3 205/1/3
f 208/1/3 206/1/3 207/1/3
f 209/1/4 210/1/4 211/1/4
f 211/1/4 210/1/4 212/1/4
f 213/2/4 214/2/4 215/2/4
f 215/2/4 214/2/4 216/2/4
f 217/2/4 218/2/4 219/2/4
f 219/2/4 218/2/4 220/2/4
f 221/2/4 222/2/4 223/2/4
f 223/2/4 222/2/4 224/2/4
f 223/3/4 224/3/4 226/3/4
f 226/3/4 224/3/4 227/3/4
f 225/2/4 226/2/4 228/2/4
f 226/1/4 227/1/4 229/1/4
f 228/2/4 226/2/4 229/2/4
f 229/1/4 227/1/4 230/1/4
f 225/2/4 228/2/4 232/2/4
f 232/2/4 228/2/4 233/2/4
f 231/2/4 232/2/4 235/2/4
f 233/2/4 234/2/4 235/2/4
f 232/2/4 233/2/4 235/2/4
f 235/2/4 234/2/4 236/2/4
f 236/2/4 234/2/4 237/2/4
f 229/3/4 230/3/4 238/3/4
f 238/3/4 230/3/4 239/3/4
f 240/2/4 241/2/4 243/2/4
f 241/2/4 242/2/4 243/2/4
f 243/2/4 242/2/4 244/2/4
f 244/2/4 242/2/4 245/2/4
f 245/2/4 242/2/4 246/2/4
f 244/2/4 245/2/4 247/2/4
f 239/3/4 230/3/4 248/3/4
f 248/3/4 230/3/4 249/3/4
f 244/2/4 247/2/4 250/2/4
f 247/2/4 248/2/4 250/2/4
f 248/1/4 249/1/4 251/1/4
f 250/2/4 248/2/4 251/2/4
f 251/1/4 249/1/4 252/1/4
f 251/3/4 252/3/4 253/3/4
f 253/3/4 252/3/4 254/3/4
f 255/2/4 256/2/4 257/2/4
f 257/2/4 256/2/4 258/2/4
f 259/2/4 260/2/4 261/2/4
f 261/1/4 262/1/4 264/1/4
f 264/1/4 262/1/4 265/1/4
f 265/1/4 262/1/4 266/1/4
f 266/1/4 262/1/4 267/1/4
f 265/1/4 266/1/4 268/1/4
f 266/5/4 267/5/4 268/5/4
f 267/1/4 262/1/4 269/1/4
f 268/5/4 267/5/4 269/5/4
f 265/1/4 268/1/4 270/1/4
f 268/1/4 269/1/4 270/1/4
f 269/1/4 262/1/4 271/1/4
f 270/1/4 269/1/4 271/1/4
f 261/1/4 264/1/4 272/1/4
f 264/5/4 265/5/4 272/5/4
f 265/1/4 270/1/4 273/1/4
f 272/5/4 265/5/4 273/5/4
f 270/5/4 271/5/4 274/5/4
f 273/1/4 270/1/4 274/1/4
f 271/1/4 262/1/4 275/1/4
f 274/5/4 271/5/4 275/5/4
f 259/2/4 261/2/4 276/2/4
f 273/1/4 274/1/4 276/1/4
f 274/1/4 275/1/4 276/1/4
f 261/1/4 272/1/4 276/1/4
f 272/1/4 273/1/4 276/1/4
f 275/1/4 262/1/4 277/1/4
f 276/1/4 275/1/4 277/1/4
f 262/5/4 263/5/4 277/5/4
f 277/5/4 263/5/4 278/5/4
f 259/2/4 276/2/4 279/2/4
f 279/2/4 276/2/4 280/2/4
f 281/2/4 282/2/4 283/2/4
f 283/2/4 282/2/4 284/2/4
f 287/2/5 286/2/5 285/2/5
f 288/2/5 286/2/5 287/2/5
f 293/2/5 290/2/5 289/2/5
f 294/2/5 290/2/5 293/2/5
f 295/2/5 292/2/5 291/2/5
f 296/2/5 292/2/5 295/2/5
f 301/2/5 298/2/5 297/2/5
f 302/2/5 298/2/5 301/2/5
f 303/2/5 300/2/5 299/2/5
f 304/2/5 300/2/5 303/2/5
f 307/1/5 306/1/5 305/1/5
f 308/1/5 306/1/5 307/1/5
f 312/2/5 310/2/5 309/2/5
f 314/2/5 312/2/5 311/2/5
f 315/2/5 312/2/5 314/2/5
f 316/2/5 310/2/5 312/2/5
f 316/2/5 312/2/5 315/2/5
f 325/2/5 315/2/5 314/2/5
f 325/2/5 314/2/5 313/2/5
f 326/2/5 315/2/5 325/2/5
f 327/2/5 315/2/5 326/2/5
f 328/2/5 317/2/5 316/2/5
f 329/3/5 318/3/5 317/3/5
f 329/2/5 317/2/5 328/2/5
f 330/3/5 318/3/5 329/3/5
f 331/3/5 320/3/5 319/3/5
f 332/3/5 320/3/5 331/3/5
f 333/3/5 322/3/5 321/3/5
f 334/3/5 322/3/5 333/3/5
f 335/3/5 324/3/5 323/3/5
f 336/3/5 324/3/5 335/3/5
f 337/2/5 327/2/5 326/2/5
f 337/2/5 328/2/5 327/2/5
f 338/2/5 328/2/5 337/2/5
f 339/2/5 328/2/5 338/2/5
f 340/2/5 328/2/5 339/2/5
f 343/2/5 342/2/5 341/2/5
f 344/2/5 342/2/5 343/2/5
f 345/2/6 346/2/6 351/2/6
f 347/2/6 348/2/6 352/2/6
f 351/2/6 346/2/6 353/2/6
f 349/4/6 350/4/6 354/4/6
f 354/4/6 350/4/6 355/4/6
f 347/2/6 352/2/6 356/2/6
f 353/2/6 346/2/6 357/2/6
f 357/2/6 346/2/6 358/2/6
f 347/2/6 356/2/6 359/2/6
f 359/2/6 356/2/6 360/2/6
f 361/2/6 362/2/6 365/2/6
f 365/2/6 362/2/6 366/2/6
f 363/2/6 364/2/6 367/2/6
f 367/2/6 364/2/6 368/2/6
f 369/2/6 370/2/6 373/2/6
f 373/2/6 370/2/6 374/2/6
f 371/2/6 372/2/6 375/2/6
f 375/2/6 372/2/6 376/2/6
f 377/5/6 378/5/6 379/5/6
f 379/5/6 378/5/6 380/5/6
f 381/5/6 382/5/6 383/5/6
f 383/5/6 382/5/6 384/5/6
f 385/2/6 386/2/6 388/2/6
f 387/2/6 388/2/6 394/2/6
f 388/2/6 386/2/6 395/2/6
f 394/2/6 388/2/6 395/2/6
f 389/1/6 390/1/6 397/1/6
f 397/1/6 390/1/6 398/1/6
f 391/1/6 392/1/6 399/1/6
f 399/1/6 392/1/6 400/1/6
f 393/2/6 394/2/6 402/2/6
f 395/2/6 396/2/6 402/2/6
f 394/2/6 395/2/6 402/2/6
f 402/2/6 396/2/6 403/2/6
f 403/2/6 396/2/6 404/2/6
f 396/3/6 397/3/6 405/3/6
f 404/2/6 396/2/6 405/2/6
f 397/1/6 398/1/6 406/1/6
f 405/3/6 397/3/6 406/3/6
f 398/3/6 399/3/6 407/3/6
f 406/1/6 398/1/6 407/1/6
f 399/1/6 400/1/6 408/1/6
f 407/3/6 399/3/6 408/3/6
f 400/3/6 401/3/6 409/3/6
f 408/1/6 400/1/6 409/1/6
f 409/3/6 401/3/6 410/3/6
f 403/2/6 404/2/6 411/2/6
f 411/2/6 404/2/6 412/2/6
f 412/2/6 404/2/6 413/2/6
f 413/2/6 404/2/6 414/2/6
