# MagicaVoxel @ Ephtracy

# group
g P2W

# material
mtllib P2W.mtl
usemtl palette

# normals
vn -1 0 0
vn 1 0 0
vn 0 0 1
vn 0 0 -1
vn 0 -1 0
vn 0 1 0

# texcoords
vt 0.0605469 0.5
vt 0.0683594 0.5
vt 0.322266 0.5
vt 0.537109 0.5
vt 0.982422 0.5
vt 0.994141 0.5

# verts
v -18 15 3
v -18 15 1
v -18 17 3
v -18 17 1
v -17 15 4
v -17 15 3
v -17 15 1
v -17 15 -0
v -17 17 4
v -17 17 3
v -17 17 1
v -17 17 -0
v -15 15 5
v -15 15 4
v -15 15 -0
v -15 15 -1
v -15 17 5
v -15 17 4
v -15 17 -0
v -15 17 -1
v -13 15 3
v -13 15 1
v -13 16 3
v -13 16 1
v -6 9 4
v -6 9 1
v -6 15 4
v -6 15 3
v -6 15 1
v -6 17 4
v -6 17 3
v -4 15 3
v -4 15 2
v -4 16 3
v -4 16 2
v -3 8 4
v -3 8 1
v -3 9 4
v -3 9 1
v -3 11 4
v -3 11 1
v -3 12 4
v -3 12 1
v -2 3 5
v -2 3 -1
v -2 8 4
v -2 8 1
v -2 9 5
v -2 9 4
v -2 9 1
v -2 9 -1
v 0 9 5
v 0 9 -1
v 0 13 5
v 0 13 -0
v 0 14 -0
v 0 14 -1
v 0 15 5
v 0 15 3
v 0 15 1
v 0 15 -1
v 4 9 4
v 4 9 -0
v 4 10 4
v 4 10 -0
v 4 14 2
v 4 14 1
v 4 15 2
v 4 15 1
v 7 9 4
v 7 9 1
v 7 12 4
v 7 12 1
v 9 11 4
v 9 11 1
v 9 15 4
v 9 15 3
v 9 15 1
v 9 17 4
v 9 17 3
v 11 15 3
v 11 15 2
v 11 16 3
v 11 16 2
v -16 15 3
v -16 15 1
v -16 16 3
v -16 16 1
v -13 15 5
v -13 15 3
v -13 15 1
v -13 15 -1
v -13 17 5
v -13 17 3
v -13 17 1
v -13 17 -1
v -5 15 3
v -5 15 2
v -5 16 3
v -5 16 2
v -4 11 4
v -4 11 1
v -4 15 4
v -4 15 3
v -4 15 1
v -4 17 4
v -4 17 3
v -2 9 4
v -2 9 1
v -2 12 4
v -2 12 1
v 1 9 4
v 1 9 -0
v 1 10 4
v 1 10 -0
v 1 14 2
v 1 14 1
v 1 15 2
v 1 15 1
v 5 9 5
v 5 9 -1
v 5 13 5
v 5 13 -0
v 5 14 -0
v 5 14 -1
v 5 15 5
v 5 15 3
v 5 15 1
v 5 15 -1
v 7 3 5
v 7 3 -1
v 7 8 4
v 7 8 1
v 7 9 5
v 7 9 4
v 7 9 1
v 7 9 -1
v 8 8 4
v 8 8 1
v 8 9 4
v 8 9 1
v 8 11 4
v 8 11 1
v 8 12 4
v 8 12 1
v 9 15 3
v 9 15 2
v 9 16 3
v 9 16 2
v 11 9 4
v 11 9 1
v 11 15 4
v 11 15 3
v 11 15 1
v 11 17 4
v 11 17 3
v 13 15 3
v 13 15 1
v 13 17 3
v 13 17 1
v -15 15 5
v -15 17 5
v -13 15 5
v -13 17 5
v -2 3 5
v -2 9 5
v 0 9 5
v 0 13 5
v 0 15 5
v 5 9 5
v 5 13 5
v 5 15 5
v 7 3 5
v 7 9 5
v -17 15 4
v -17 17 4
v -15 15 4
v -15 17 4
v -6 9 4
v -6 15 4
v -6 17 4
v -4 11 4
v -4 15 4
v -4 17 4
v -3 8 4
v -3 9 4
v -3 11 4
v -3 12 4
v -2 8 4
v -2 9 4
v -2 12 4
v 7 8 4
v 7 9 4
v 7 12 4
v 8 8 4
v 8 9 4
v 8 11 4
v 8 12 4
v 9 11 4
v 9 15 4
v 9 17 4
v 11 9 4
v 11 15 4
v 11 17 4
v -18 15 3
v -18 17 3
v -17 15 3
v -17 17 3
v -13 15 3
v -13 17 3
v -12 15 3
v -12 17 3
v -6 15 3
v -6 17 3
v -4 15 3
v -4 17 3
v 0 15 3
v 5 15 3
v 9 15 3
v 9 17 3
v 11 15 3
v 11 17 3
v 13 15 3
v 13 17 3
v -5 15 2
v -5 16 2
v -4 15 2
v -4 16 2
v 9 15 2
v 9 16 2
v 11 15 2
v 11 16 2
v -16 15 1
v -16 16 1
v -13 15 1
v -13 16 1
v 1 14 1
v 1 15 1
v 4 14 1
v 4 15 1
v 1 9 -0
v 1 10 -0
v 4 9 -0
v 4 10 -0
v 1 9 4
v 1 10 4
v 4 9 4
v 4 10 4
v -16 15 3
v -16 16 3
v -13 15 3
v -13 16 3
v -5 15 3
v -5 16 3
v -4 15 3
v -4 16 3
v 9 15 3
v 9 16 3
v 11 15 3
v 11 16 3
v 1 14 2
v 1 15 2
v 4 14 2
v 4 15 2
v -18 15 1
v -18 17 1
v -17 15 1
v -17 17 1
v -13 15 1
v -13 17 1
v -12 15 1
v -12 17 1
v -6 9 1
v -6 15 1
v -6 17 1
v -4 11 1
v -4 15 1
v -4 17 1
v -3 8 1
v -3 9 1
v -3 11 1
v -3 12 1
v -2 8 1
v -2 9 1
v -2 12 1
v 0 15 1
v 5 15 1
v 7 8 1
v 7 9 1
v 7 12 1
v 8 8 1
v 8 9 1
v 8 11 1
v 8 12 1
v 9 11 1
v 9 15 1
v 9 17 1
v 11 9 1
v 11 15 1
v 11 17 1
v 13 15 1
v 13 17 1
v -17 15 -0
v -17 17 -0
v -15 15 -0
v -15 17 -0
v -15 15 -1
v -15 17 -1
v -13 15 -1
v -13 17 -1
v -2 3 -1
v -2 9 -1
v 0 9 -1
v 0 14 -1
v 0 15 -1
v 1 10 -1
v 1 11 -1
v 1 12 -1
v 1 13 -1
v 2 12 -1
v 2 13 -1
v 3 12 -1
v 3 13 -1
v 4 10 -1
v 4 11 -1
v 4 12 -1
v 4 13 -1
v 5 9 -1
v 5 14 -1
v 5 15 -1
v 7 3 -1
v 7 9 -1
v -2 3 5
v 7 3 5
v -2 3 -1
v 7 3 -1
v -3 8 4
v -2 8 4
v 7 8 4
v 8 8 4
v -3 8 1
v -2 8 1
v 7 8 1
v 8 8 1
v -6 9 4
v -3 9 4
v 8 9 4
v 11 9 4
v -6 9 1
v -3 9 1
v 8 9 1
v 11 9 1
v 1 10 4
v 4 10 4
v 1 10 -0
v 4 10 -0
v -15 15 5
v -13 15 5
v -17 15 4
v -15 15 4
v -18 15 3
v -17 15 3
v -16 15 3
v -13 15 3
v -12 15 3
v -6 15 3
v -4 15 3
v 0 15 3
v 5 15 3
v 9 15 3
v 11 15 3
v 13 15 3
v 1 15 2
v 4 15 2
v -18 15 1
v -17 15 1
v -16 15 1
v -13 15 1
v -12 15 1
v -6 15 1
v -4 15 1
v 0 15 1
v 1 15 1
v 4 15 1
v 5 15 1
v 9 15 1
v 11 15 1
v 13 15 1
v -17 15 -0
v -15 15 -0
v -15 15 -1
v -13 15 -1
v -16 16 3
v -13 16 3
v -5 16 3
v -4 16 3
v 9 16 3
v 11 16 3
v -5 16 2
v -4 16 2
v 9 16 2
v 11 16 2
v -16 16 1
v -13 16 1
v -2 9 5
v 0 9 5
v 5 9 5
v 7 9 5
v -2 9 4
v 1 9 4
v 4 9 4
v 7 9 4
v -2 9 1
v 7 9 1
v 1 9 -0
v 4 9 -0
v -2 9 -1
v 0 9 -1
v 5 9 -1
v 7 9 -1
v -4 11 4
v -3 11 4
v 8 11 4
v 9 11 4
v -4 11 1
v -3 11 1
v 8 11 1
v 9 11 1
v -3 12 4
v -2 12 4
v 7 12 4
v 8 12 4
v -3 12 1
v -2 12 1
v 7 12 1
v 8 12 1
v 1 14 2
v 4 14 2
v 1 14 1
v 4 14 1
v 0 15 5
v 5 15 5
v -5 15 3
v -4 15 3
v 0 15 3
v 5 15 3
v 9 15 3
v 11 15 3
v -5 15 2
v -4 15 2
v 9 15 2
v 11 15 2
v 0 15 1
v 5 15 1
v 0 15 -1
v 5 15 -1
v -15 17 5
v -13 17 5
v -17 17 4
v -15 17 4
v -6 17 4
v -4 17 4
v 9 17 4
v 11 17 4
v -18 17 3
v -17 17 3
v -13 17 3
v -12 17 3
v -6 17 3
v -4 17 3
v 9 17 3
v 11 17 3
v 13 17 3
v -18 17 1
v -17 17 1
v -13 17 1
v -12 17 1
v -6 17 1
v -4 17 1
v 9 17 1
v 11 17 1
v 13 17 1
v -17 17 -0
v -15 17 -0
v -15 17 -1
v -13 17 -1

# faces
f 3/2/1 2/2/1 1/2/1
f 4/2/1 2/2/1 3/2/1
f 9/2/1 6/2/1 5/2/1
f 10/2/1 6/2/1 9/2/1
f 11/2/1 8/2/1 7/2/1
f 12/2/1 8/2/1 11/2/1
f 17/2/1 14/2/1 13/2/1
f 18/2/1 14/2/1 17/2/1
f 19/2/1 16/2/1 15/2/1
f 20/2/1 16/2/1 19/2/1
f 23/2/1 22/2/1 21/2/1
f 24/2/1 22/2/1 23/2/1
f 27/3/1 26/3/1 25/3/1
f 28/3/1 26/3/1 27/3/1
f 29/3/1 26/3/1 28/3/1
f 30/1/1 28/1/1 27/1/1
f 31/1/1 28/1/1 30/1/1
f 34/4/1 33/4/1 32/4/1
f 35/4/1 33/4/1 34/4/1
f 38/3/1 37/3/1 36/3/1
f 39/3/1 37/3/1 38/3/1
f 42/3/1 41/3/1 40/3/1
f 43/3/1 41/3/1 42/3/1
f 46/3/1 45/3/1 44/3/1
f 47/3/1 45/3/1 46/3/1
f 48/3/1 46/3/1 44/3/1
f 49/3/1 46/3/1 48/3/1
f 50/3/1 45/3/1 47/3/1
f 51/3/1 45/3/1 50/3/1
f 54/1/1 53/1/1 52/1/1
f 55/1/1 53/1/1 54/1/1
f 56/6/1 55/6/1 54/6/1
f 56/1/1 53/1/1 55/1/1
f 57/1/1 53/1/1 56/1/1
f 58/6/1 56/6/1 54/6/1
f 58/6/1 57/6/1 56/6/1
f 59/6/1 57/6/1 58/6/1
f 60/6/1 57/6/1 59/6/1
f 61/6/1 57/6/1 60/6/1
f 64/1/1 63/1/1 62/1/1
f 65/1/1 63/1/1 64/1/1
f 68/6/1 67/6/1 66/6/1
f 69/6/1 67/6/1 68/6/1
f 72/3/1 71/3/1 70/3/1
f 73/3/1 71/3/1 72/3/1
f 76/3/1 75/3/1 74/3/1
f 77/3/1 75/3/1 76/3/1
f 78/3/1 75/3/1 77/3/1
f 79/1/1 77/1/1 76/1/1
f 80/1/1 77/1/1 79/1/1
f 83/4/1 82/4/1 81/4/1
f 84/4/1 82/4/1 83/4/1
f 85/2/2 86/2/2 87/2/2
f 87/2/2 86/2/2 88/2/2
f 89/2/2 90/2/2 93/2/2
f 93/2/2 90/2/2 94/2/2
f 91/2/2 92/2/2 95/2/2
f 95/2/2 92/2/2 96/2/2
f 97/1/2 98/1/2 99/1/2
f 99/1/2 98/1/2 100/1/2
f 101/3/2 102/3/2 103/3/2
f 103/3/2 102/3/2 104/3/2
f 104/3/2 102/3/2 105/3/2
f 103/1/2 104/1/2 106/1/2
f 106/1/2 104/1/2 107/1/2
f 108/3/2 109/3/2 110/3/2
f 110/3/2 109/3/2 111/3/2
f 112/1/2 113/1/2 114/1/2
f 114/1/2 113/1/2 115/1/2
f 116/6/2 117/6/2 118/6/2
f 118/6/2 117/6/2 119/6/2
f 120/1/2 121/1/2 122/1/2
f 122/1/2 121/1/2 123/1/2
f 122/6/2 123/6/2 124/6/2
f 123/1/2 121/1/2 124/1/2
f 124/1/2 121/1/2 125/1/2
f 122/6/2 124/6/2 126/6/2
f 124/6/2 125/6/2 126/6/2
f 126/6/2 125/6/2 127/6/2
f 127/6/2 125/6/2 128/6/2
f 128/6/2 125/6/2 129/6/2
f 130/3/2 131/3/2 132/3/2
f 132/3/2 131/3/2 133/3/2
f 130/3/2 132/3/2 134/3/2
f 134/3/2 132/3/2 135/3/2
f 133/3/2 131/3/2 136/3/2
f 136/3/2 131/3/2 137/3/2
f 138/3/2 139/3/2 140/3/2
f 140/3/2 139/3/2 141/3/2
f 142/3/2 143/3/2 144/3/2
f 144/3/2 143/3/2 145/3/2
f 146/4/2 147/4/2 148/4/2
f 148/4/2 147/4/2 149/4/2
f 150/3/2 151/3/2 152/3/2
f 152/3/2 151/3/2 153/3/2
f 153/3/2 151/3/2 154/3/2
f 152/1/2 153/1/2 155/1/2
f 155/1/2 153/1/2 156/1/2
f 157/4/2 158/4/2 159/4/2
f 159/4/2 158/4/2 160/4/2
f 163/2/3 162/2/3 161/2/3
f 164/2/3 162/2/3 163/2/3
f 167/3/3 166/3/3 165/3/3
f 170/3/3 167/3/3 165/3/3
f 170/1/3 168/1/3 167/1/3
f 171/6/3 169/6/3 168/6/3
f 171/1/3 168/1/3 170/1/3
f 172/6/3 169/6/3 171/6/3
f 173/3/3 170/3/3 165/3/3
f 174/3/3 170/3/3 173/3/3
f 177/2/3 176/2/3 175/2/3
f 178/2/3 176/2/3 177/2/3
f 182/3/3 180/3/3 179/3/3
f 183/1/3 181/1/3 180/1/3
f 183/3/3 180/3/3 182/3/3
f 184/1/3 181/1/3 183/1/3
f 186/3/3 182/3/3 179/3/3
f 187/3/3 182/3/3 186/3/3
f 189/3/3 186/3/3 185/3/3
f 189/3/3 188/3/3 187/3/3
f 189/3/3 187/3/3 186/3/3
f 190/3/3 188/3/3 189/3/3
f 191/3/3 188/3/3 190/3/3
f 195/3/3 193/3/3 192/3/3
f 195/3/3 194/3/3 193/3/3
f 196/3/3 194/3/3 195/3/3
f 197/3/3 194/3/3 196/3/3
f 198/3/3 194/3/3 197/3/3
f 199/3/3 197/3/3 196/3/3
f 202/3/3 199/3/3 196/3/3
f 202/3/3 200/3/3 199/3/3
f 203/1/3 201/1/3 200/1/3
f 203/3/3 200/3/3 202/3/3
f 204/1/3 201/1/3 203/1/3
f 207/2/3 206/2/3 205/2/3
f 208/2/3 206/2/3 207/2/3
f 211/2/3 210/2/3 209/2/3
f 212/2/3 210/2/3 211/2/3
f 213/4/3 212/4/3 211/4/3
f 214/4/3 212/4/3 213/4/3
f 217/4/3 216/4/3 215/4/3
f 218/4/3 216/4/3 217/4/3
f 219/4/3 216/4/3 218/4/3
f 220/4/3 216/4/3 219/4/3
f 223/4/3 222/4/3 221/4/3
f 224/4/3 222/4/3 223/4/3
f 227/1/3 226/1/3 225/1/3
f 228/1/3 226/1/3 227/1/3
f 231/1/3 230/1/3 229/1/3
f 232/1/3 230/1/3 231/1/3
f 235/2/3 234/2/3 233/2/3
f 236/2/3 234/2/3 235/2/3
f 239/6/3 238/6/3 237/6/3
f 240/6/3 238/6/3 239/6/3
f 243/1/3 242/1/3 241/1/3
f 244/1/3 242/1/3 243/1/3
f 245/1/4 246/1/4 247/1/4
f 247/1/4 246/1/4 248/1/4
f 249/2/4 250/2/4 251/2/4
f 251/2/4 250/2/4 252/2/4
f 253/1/4 254/1/4 255/1/4
f 255/1/4 254/1/4 256/1/4
f 257/1/4 258/1/4 259/1/4
f 259/1/4 258/1/4 260/1/4
f 261/6/4 262/6/4 263/6/4
f 263/6/4 262/6/4 264/6/4
f 265/2/4 266/2/4 267/2/4
f 267/2/4 266/2/4 268/2/4
f 269/2/4 270/2/4 271/2/4
f 271/2/4 270/2/4 272/2/4
f 271/4/4 272/4/4 274/4/4
f 274/4/4 272/4/4 275/4/4
f 273/3/4 274/3/4 276/3/4
f 274/1/4 275/1/4 277/1/4
f 276/3/4 274/3/4 277/3/4
f 277/1/4 275/1/4 278/1/4
f 273/3/4 276/3/4 280/3/4
f 280/3/4 276/3/4 281/3/4
f 279/3/4 280/3/4 283/3/4
f 281/3/4 282/3/4 283/3/4
f 280/3/4 281/3/4 283/3/4
f 283/3/4 282/3/4 284/3/4
f 284/3/4 282/3/4 285/3/4
f 277/4/4 278/4/4 286/4/4
f 286/4/4 278/4/4 287/4/4
f 288/3/4 289/3/4 291/3/4
f 289/3/4 290/3/4 291/3/4
f 291/3/4 290/3/4 292/3/4
f 292/3/4 290/3/4 293/3/4
f 293/3/4 290/3/4 294/3/4
f 292/3/4 293/3/4 295/3/4
f 287/4/4 278/4/4 296/4/4
f 296/4/4 278/4/4 297/4/4
f 292/3/4 295/3/4 298/3/4
f 295/3/4 296/3/4 298/3/4
f 296/1/4 297/1/4 299/1/4
f 298/3/4 296/3/4 299/3/4
f 299/1/4 297/1/4 300/1/4
f 299/4/4 300/4/4 301/4/4
f 301/4/4 300/4/4 302/4/4
f 303/2/4 304/2/4 305/2/4
f 305/2/4 304/2/4 306/2/4
f 307/2/4 308/2/4 309/2/4
f 309/2/4 308/2/4 310/2/4
f 311/3/4 312/3/4 313/3/4
f 313/1/4 314/1/4 316/1/4
f 316/1/4 314/1/4 317/1/4
f 317/1/4 314/1/4 318/1/4
f 318/1/4 314/1/4 319/1/4
f 317/1/4 318/1/4 320/1/4
f 318/6/4 319/6/4 320/6/4
f 319/1/4 314/1/4 321/1/4
f 320/6/4 319/6/4 321/6/4
f 317/1/4 320/1/4 322/1/4
f 320/1/4 321/1/4 322/1/4
f 321/1/4 314/1/4 323/1/4
f 322/1/4 321/1/4 323/1/4
f 313/1/4 316/1/4 324/1/4
f 316/6/4 317/6/4 324/6/4
f 317/1/4 322/1/4 325/1/4
f 324/6/4 317/6/4 325/6/4
f 322/6/4 323/6/4 326/6/4
f 325/1/4 322/1/4 326/1/4
f 323/1/4 314/1/4 327/1/4
f 326/6/4 323/6/4 327/6/4
f 311/3/4 313/3/4 328/3/4
f 325/1/4 326/1/4 328/1/4
f 326/1/4 327/1/4 328/1/4
f 313/1/4 324/1/4 328/1/4
f 324/1/4 325/1/4 328/1/4
f 327/1/4 314/1/4 329/1/4
f 328/1/4 327/1/4 329/1/4
f 314/6/4 315/6/4 329/6/4
f 329/6/4 315/6/4 330/6/4
f 311/3/4 328/3/4 331/3/4
f 331/3/4 328/3/4 332/3/4
f 335/3/5 334/3/5 333/3/5
f 336/3/5 334/3/5 335/3/5
f 341/3/5 338/3/5 337/3/5
f 342/3/5 338/3/5 341/3/5
f 343/3/5 340/3/5 339/3/5
f 344/3/5 340/3/5 343/3/5
f 349/3/5 346/3/5 345/3/5
f 350/3/5 346/3/5 349/3/5
f 351/3/5 348/3/5 347/3/5
f 352/3/5 348/3/5 351/3/5
f 355/1/5 354/1/5 353/1/5
f 356/1/5 354/1/5 355/1/5
f 360/2/5 358/2/5 357/2/5
f 362/2/5 360/2/5 359/2/5
f 363/2/5 360/2/5 362/2/5
f 364/2/5 358/2/5 360/2/5
f 364/2/5 360/2/5 363/2/5
f 375/2/5 363/2/5 362/2/5
f 375/2/5 362/2/5 361/2/5
f 376/2/5 363/2/5 375/2/5
f 377/2/5 363/2/5 376/2/5
f 378/2/5 365/2/5 364/2/5
f 379/4/5 366/4/5 365/4/5
f 379/2/5 365/2/5 378/2/5
f 380/4/5 366/4/5 379/4/5
f 381/4/5 368/4/5 367/4/5
f 382/4/5 368/4/5 381/4/5
f 383/4/5 374/4/5 373/4/5
f 384/4/5 374/4/5 383/4/5
f 385/4/5 370/4/5 369/4/5
f 386/4/5 370/4/5 385/4/5
f 387/4/5 372/4/5 371/4/5
f 388/4/5 372/4/5 387/4/5
f 389/2/5 377/2/5 376/2/5
f 389/2/5 378/2/5 377/2/5
f 390/2/5 378/2/5 389/2/5
f 391/2/5 378/2/5 390/2/5
f 392/2/5 378/2/5 391/2/5
f 399/1/5 396/1/5 395/1/5
f 400/1/5 396/1/5 399/1/5
f 401/1/5 398/1/5 397/1/5
f 402/1/5 398/1/5 401/1/5
f 403/2/5 394/2/5 393/2/5
f 404/2/5 394/2/5 403/2/5
f 405/3/6 406/3/6 409/3/6
f 407/3/6 408/3/6 412/3/6
f 409/3/6 406/3/6 413/3/6
f 407/3/6 412/3/6 414/3/6
f 410/5/6 411/5/6 415/5/6
f 415/5/6 411/5/6 416/5/6
f 413/3/6 406/3/6 417/3/6
f 417/3/6 406/3/6 418/3/6
f 407/3/6 414/3/6 419/3/6
f 419/3/6 414/3/6 420/3/6
f 421/3/6 422/3/6 425/3/6
f 425/3/6 422/3/6 426/3/6
f 423/3/6 424/3/6 427/3/6
f 427/3/6 424/3/6 428/3/6
f 429/3/6 430/3/6 433/3/6
f 433/3/6 430/3/6 434/3/6
f 431/3/6 432/3/6 435/3/6
f 435/3/6 432/3/6 436/3/6
f 437/1/6 438/1/6 439/1/6
f 439/1/6 438/1/6 440/1/6
f 441/6/6 442/6/6 445/6/6
f 445/6/6 442/6/6 446/6/6
f 443/3/6 444/3/6 449/3/6
f 449/3/6 444/3/6 450/3/6
f 447/3/6 448/3/6 451/3/6
f 451/3/6 448/3/6 452/3/6
f 453/6/6 454/6/6 455/6/6
f 455/6/6 454/6/6 456/6/6
f 457/2/6 458/2/6 460/2/6
f 459/2/6 460/2/6 466/2/6
f 460/2/6 458/2/6 467/2/6
f 466/2/6 460/2/6 467/2/6
f 461/1/6 462/1/6 469/1/6
f 469/1/6 462/1/6 470/1/6
f 463/1/6 464/1/6 471/1/6
f 471/1/6 464/1/6 472/1/6
f 465/2/6 466/2/6 474/2/6
f 467/2/6 468/2/6 474/2/6
f 466/2/6 467/2/6 474/2/6
f 474/2/6 468/2/6 475/2/6
f 475/2/6 468/2/6 476/2/6
f 468/4/6 469/4/6 477/4/6
f 476/2/6 468/2/6 477/2/6
f 469/1/6 470/1/6 478/1/6
f 477/4/6 469/4/6 478/4/6
f 470/4/6 471/4/6 479/4/6
f 478/1/6 470/1/6 479/1/6
f 471/1/6 472/1/6 480/1/6
f 479/4/6 471/4/6 480/4/6
f 472/4/6 473/4/6 481/4/6
f 480/1/6 472/1/6 481/1/6
f 481/4/6 473/4/6 482/4/6
f 475/2/6 476/2/6 483/2/6
f 483/2/6 476/2/6 484/2/6
f 484/2/6 476/2/6 485/2/6
f 485/2/6 476/2/6 486/2/6
