# MagicaVoxel @ Ephtracy

# group
g P3R

# material
mtllib P3R.mtl
usemtl palette

# normals
vn -1 0 0
vn 1 0 0
vn 0 0 1
vn 0 0 -1
vn 0 -1 0
vn 0 1 0

# texcoords
vt 0.0605469 0.5
vt 0.0683594 0.5
vt 0.322266 0.5
vt 0.537109 0.5
vt 0.548828 0.5
vt 0.982422 0.5
vt 0.994141 0.5

# verts
v -11 9 -3
v -11 9 -5
v -11 11 -3
v -11 11 -5
v -9 9 3
v -9 9 -3
v -9 11 -3
v -9 11 -5
v -9 12 3
v -9 12 -3
v -9 12 -5
v -6 9 4
v -6 9 3
v -6 9 1
v -6 9 -0
v -6 12 4
v -6 12 3
v -6 12 1
v -6 12 -0
v -5 7 5
v -5 7 -1
v -5 9 4
v -5 9 -0
v -5 12 4
v -5 12 -0
v -5 13 5
v -5 13 -1
v -3 13 5
v -3 13 -1
v -3 17 5
v -3 17 -0
v -3 18 -0
v -3 18 -1
v -3 19 5
v -3 19 -1
v 1 13 4
v 1 13 -0
v 1 14 4
v 1 14 -0
v 6 9 1
v 6 9 -3
v 6 11 -3
v 6 11 -5
v 6 12 1
v 6 12 -3
v 6 12 -5
v 15 7 -3
v 15 7 -5
v 15 9 -3
v 15 9 -5
v 15 11 -3
v 15 11 -5
v 15 13 -3
v 15 13 -5
v 18 9 -3
v 18 9 -4
v 18 11 -3
v 18 11 -4
v -7 9 1
v -7 9 -3
v -7 11 -3
v -7 11 -5
v -7 12 1
v -7 12 -3
v -7 12 -5
v -2 13 4
v -2 13 -0
v -2 14 4
v -2 14 -0
v 2 13 5
v 2 13 -1
v 2 17 5
v 2 17 -0
v 2 18 -0
v 2 18 -1
v 2 19 5
v 2 19 -1
v 4 7 5
v 4 7 -1
v 4 9 4
v 4 9 -0
v 4 12 4
v 4 12 -0
v 4 13 5
v 4 13 -1
v 5 9 4
v 5 9 3
v 5 9 1
v 5 9 -0
v 5 12 4
v 5 12 3
v 5 12 1
v 5 12 -0
v 8 9 3
v 8 9 -3
v 8 11 -3
v 8 11 -5
v 8 12 3
v 8 12 -3
v 8 12 -5
v 15 9 -3
v 15 9 -4
v 15 11 -3
v 15 11 -4
v 17 7 -3
v 17 7 -5
v 17 8 -3
v 17 8 -5
v 17 12 -3
v 17 12 -5
v 17 13 -3
v 17 13 -5
v 19 8 -3
v 19 8 -5
v 19 9 -3
v 19 9 -5
v 19 11 -3
v 19 11 -5
v 19 12 -3
v 19 12 -5
v 20 9 -3
v 20 9 -5
v 20 11 -3
v 20 11 -5
v -5 7 5
v -5 13 5
v -3 13 5
v -3 17 5
v -3 19 5
v 2 13 5
v 2 17 5
v 2 19 5
v 4 7 5
v 4 13 5
v -6 9 4
v -6 12 4
v -5 9 4
v -5 12 4
v 4 9 4
v 4 12 4
v 5 9 4
v 5 12 4
v -9 9 3
v -9 12 3
v -6 9 3
v -6 12 3
v 5 9 3
v 5 12 3
v 8 9 3
v 8 12 3
v -2 13 -0
v -2 14 -0
v 1 13 -0
v 1 14 -0
v -11 9 -3
v -11 11 -3
v -9 9 -3
v -9 11 -3
v -7 9 -3
v -7 11 -3
v 6 9 -3
v 6 11 -3
v 8 9 -3
v 8 11 -3
v 14 9 -3
v 14 11 -3
v 15 7 -3
v 15 9 -3
v 15 11 -3
v 15 13 -3
v 17 7 -3
v 17 8 -3
v 17 12 -3
v 17 13 -3
v 18 9 -3
v 18 11 -3
v 19 8 -3
v 19 9 -3
v 19 11 -3
v 19 12 -3
v 20 9 -3
v 20 11 -3
v 15 9 -4
v 15 11 -4
v 18 9 -4
v 18 11 -4
v -2 13 4
v -2 14 4
v 1 13 4
v 1 14 4
v -7 9 1
v -7 12 1
v -6 9 1
v -6 12 1
v 5 9 1
v 5 12 1
v 6 9 1
v 6 12 1
v -6 9 -0
v -6 12 -0
v -5 9 -0
v -5 12 -0
v 4 9 -0
v 4 12 -0
v 5 9 -0
v 5 12 -0
v -5 7 -1
v -5 13 -1
v -3 13 -1
v -3 18 -1
v -3 19 -1
v -2 14 -1
v -2 15 -1
v -2 16 -1
v -2 17 -1
v -1 16 -1
v -1 17 -1
v 0 16 -1
v 0 17 -1
v 1 14 -1
v 1 15 -1
v 1 16 -1
v 1 17 -1
v 2 13 -1
v 2 18 -1
v 2 19 -1
v 4 7 -1
v 4 13 -1
v -11 9 -5
v -11 11 -5
v -9 9 -5
v -9 11 -5
v -9 12 -5
v -7 9 -5
v -7 11 -5
v -7 12 -5
v 6 9 -5
v 6 11 -5
v 6 12 -5
v 8 9 -5
v 8 11 -5
v 8 12 -5
v 14 9 -5
v 14 11 -5
v 15 7 -5
v 15 9 -5
v 15 11 -5
v 15 13 -5
v 17 7 -5
v 17 8 -5
v 17 12 -5
v 17 13 -5
v 19 8 -5
v 19 9 -5
v 19 11 -5
v 19 12 -5
v 20 9 -5
v 20 11 -5
v -5 7 5
v 4 7 5
v -5 7 -1
v 4 7 -1
v 15 7 -3
v 17 7 -3
v 15 7 -5
v 17 7 -5
v 17 8 -3
v 19 8 -3
v 17 8 -5
v 19 8 -5
v -6 9 4
v -5 9 4
v 4 9 4
v 5 9 4
v -9 9 3
v -6 9 3
v 5 9 3
v 8 9 3
v -7 9 1
v -6 9 1
v 5 9 1
v 6 9 1
v -6 9 -0
v -5 9 -0
v 4 9 -0
v 5 9 -0
v -11 9 -3
v -9 9 -3
v -7 9 -3
v 6 9 -3
v 8 9 -3
v 14 9 -3
v 15 9 -3
v 19 9 -3
v 20 9 -3
v -11 9 -5
v -9 9 -5
v -7 9 -5
v 6 9 -5
v 8 9 -5
v 14 9 -5
v 15 9 -5
v 19 9 -5
v 20 9 -5
v 15 11 -3
v 18 11 -3
v 15 11 -4
v 18 11 -4
v -2 14 4
v 1 14 4
v -2 14 -0
v 1 14 -0
v 15 9 -3
v 18 9 -3
v 15 9 -4
v 18 9 -4
v -11 11 -3
v -9 11 -3
v -7 11 -3
v 6 11 -3
v 8 11 -3
v 14 11 -3
v 15 11 -3
v 19 11 -3
v 20 11 -3
v -11 11 -5
v -9 11 -5
v -7 11 -5
v 6 11 -5
v 8 11 -5
v 14 11 -5
v 15 11 -5
v 19 11 -5
v 20 11 -5
v -6 12 4
v -5 12 4
v 4 12 4
v 5 12 4
v -9 12 3
v -6 12 3
v 5 12 3
v 8 12 3
v -7 12 1
v -6 12 1
v 5 12 1
v 6 12 1
v -6 12 -0
v -5 12 -0
v 4 12 -0
v 5 12 -0
v -9 12 -3
v -7 12 -3
v 6 12 -3
v 8 12 -3
v 17 12 -3
v 19 12 -3
v -9 12 -5
v -7 12 -5
v 6 12 -5
v 8 12 -5
v 17 12 -5
v 19 12 -5
v -5 13 5
v -3 13 5
v 2 13 5
v 4 13 5
v -2 13 4
v 1 13 4
v -2 13 -0
v 1 13 -0
v -5 13 -1
v -3 13 -1
v 2 13 -1
v 4 13 -1
v 15 13 -3
v 17 13 -3
v 15 13 -5
v 17 13 -5
v -3 19 5
v 2 19 5
v -3 19 -1
v 2 19 -1

# faces
f 3/4/1 2/4/1 1/4/1
f 4/4/1 2/4/1 3/4/1
f 7/5/1 6/5/1 5/5/1
f 9/5/1 7/5/1 5/5/1
f 10/1/1 8/1/1 7/1/1
f 10/5/1 7/5/1 9/5/1
f 11/1/1 8/1/1 10/1/1
f 16/5/1 13/5/1 12/5/1
f 17/5/1 13/5/1 16/5/1
f 18/5/1 15/5/1 14/5/1
f 19/5/1 15/5/1 18/5/1
f 22/5/1 21/5/1 20/5/1
f 23/5/1 21/5/1 22/5/1
f 24/5/1 22/5/1 20/5/1
f 25/5/1 21/5/1 23/5/1
f 26/5/1 24/5/1 20/5/1
f 26/5/1 25/5/1 24/5/1
f 27/5/1 21/5/1 25/5/1
f 27/5/1 25/5/1 26/5/1
f 30/1/1 29/1/1 28/1/1
f 31/1/1 29/1/1 30/1/1
f 32/7/1 31/7/1 30/7/1
f 32/1/1 29/1/1 31/1/1
f 33/1/1 29/1/1 32/1/1
f 34/7/1 32/7/1 30/7/1
f 34/7/1 33/7/1 32/7/1
f 35/7/1 33/7/1 34/7/1
f 38/1/1 37/1/1 36/1/1
f 39/1/1 37/1/1 38/1/1
f 42/5/1 41/5/1 40/5/1
f 44/5/1 42/5/1 40/5/1
f 45/1/1 43/1/1 42/1/1
f 45/5/1 42/5/1 44/5/1
f 46/1/1 43/1/1 45/1/1
f 49/2/1 48/2/1 47/2/1
f 50/2/1 48/2/1 49/2/1
f 53/2/1 52/2/1 51/2/1
f 54/2/1 52/2/1 53/2/1
f 57/2/1 56/2/1 55/2/1
f 58/2/1 56/2/1 57/2/1
f 59/5/2 60/5/2 61/5/2
f 59/5/2 61/5/2 63/5/2
f 61/1/2 62/1/2 64/1/2
f 63/5/2 61/5/2 64/5/2
f 64/1/2 62/1/2 65/1/2
f 66/1/2 67/1/2 68/1/2
f 68/1/2 67/1/2 69/1/2
f 70/1/2 71/1/2 72/1/2
f 72/1/2 71/1/2 73/1/2
f 72/7/2 73/7/2 74/7/2
f 73/1/2 71/1/2 74/1/2
f 74/1/2 71/1/2 75/1/2
f 72/7/2 74/7/2 76/7/2
f 74/7/2 75/7/2 76/7/2
f 76/7/2 75/7/2 77/7/2
f 78/5/2 79/5/2 80/5/2
f 80/5/2 79/5/2 81/5/2
f 78/5/2 80/5/2 82/5/2
f 81/5/2 79/5/2 83/5/2
f 78/5/2 82/5/2 84/5/2
f 82/5/2 83/5/2 84/5/2
f 83/5/2 79/5/2 85/5/2
f 84/5/2 83/5/2 85/5/2
f 86/5/2 87/5/2 90/5/2
f 90/5/2 87/5/2 91/5/2
f 88/5/2 89/5/2 92/5/2
f 92/5/2 89/5/2 93/5/2
f 94/5/2 95/5/2 96/5/2
f 94/5/2 96/5/2 98/5/2
f 96/1/2 97/1/2 99/1/2
f 98/5/2 96/5/2 99/5/2
f 99/1/2 97/1/2 100/1/2
f 101/2/2 102/2/2 103/2/2
f 103/2/2 102/2/2 104/2/2
f 105/2/2 106/2/2 107/2/2
f 107/2/2 106/2/2 108/2/2
f 109/2/2 110/2/2 111/2/2
f 111/2/2 110/2/2 112/2/2
f 113/2/2 114/2/2 115/2/2
f 115/2/2 114/2/2 116/2/2
f 117/2/2 118/2/2 119/2/2
f 119/2/2 118/2/2 120/2/2
f 121/2/2 122/2/2 123/2/2
f 123/2/2 122/2/2 124/2/2
f 127/5/3 126/5/3 125/5/3
f 130/5/3 127/5/3 125/5/3
f 130/1/3 128/1/3 127/1/3
f 131/7/3 129/7/3 128/7/3
f 131/1/3 128/1/3 130/1/3
f 132/7/3 129/7/3 131/7/3
f 133/5/3 130/5/3 125/5/3
f 134/5/3 130/5/3 133/5/3
f 137/5/3 136/5/3 135/5/3
f 138/5/3 136/5/3 137/5/3
f 141/5/3 140/5/3 139/5/3
f 142/5/3 140/5/3 141/5/3
f 145/5/3 144/5/3 143/5/3
f 146/5/3 144/5/3 145/5/3
f 149/5/3 148/5/3 147/5/3
f 150/5/3 148/5/3 149/5/3
f 153/1/3 152/1/3 151/1/3
f 154/1/3 152/1/3 153/1/3
f 157/4/3 156/4/3 155/4/3
f 158/4/3 156/4/3 157/4/3
f 161/4/3 160/4/3 159/4/3
f 162/4/3 160/4/3 161/4/3
f 165/4/3 164/4/3 163/4/3
f 166/4/3 164/4/3 165/4/3
f 168/2/3 166/2/3 165/2/3
f 169/2/3 166/2/3 168/2/3
f 171/2/3 168/2/3 167/2/3
f 172/2/3 168/2/3 171/2/3
f 173/2/3 170/2/3 169/2/3
f 174/2/3 170/2/3 173/2/3
f 175/2/3 168/2/3 172/2/3
f 176/2/3 173/2/3 169/2/3
f 177/2/3 175/2/3 172/2/3
f 177/2/3 176/2/3 175/2/3
f 178/2/3 176/2/3 177/2/3
f 179/2/3 173/2/3 176/2/3
f 179/2/3 176/2/3 178/2/3
f 180/2/3 173/2/3 179/2/3
f 181/2/3 179/2/3 178/2/3
f 182/2/3 179/2/3 181/2/3
f 185/2/3 184/2/3 183/2/3
f 186/2/3 184/2/3 185/2/3
f 187/1/4 188/1/4 189/1/4
f 189/1/4 188/1/4 190/1/4
f 191/5/4 192/5/4 193/5/4
f 193/5/4 192/5/4 194/5/4
f 195/5/4 196/5/4 197/5/4
f 197/5/4 196/5/4 198/5/4
f 199/5/4 200/5/4 201/5/4
f 201/5/4 200/5/4 202/5/4
f 203/5/4 204/5/4 205/5/4
f 205/5/4 204/5/4 206/5/4
f 207/5/4 208/5/4 209/5/4
f 209/1/4 210/1/4 212/1/4
f 212/1/4 210/1/4 213/1/4
f 213/1/4 210/1/4 214/1/4
f 214/1/4 210/1/4 215/1/4
f 213/1/4 214/1/4 216/1/4
f 214/7/4 215/7/4 216/7/4
f 215/1/4 210/1/4 217/1/4
f 216/7/4 215/7/4 217/7/4
f 213/1/4 216/1/4 218/1/4
f 216/1/4 217/1/4 218/1/4
f 217/1/4 210/1/4 219/1/4
f 218/1/4 217/1/4 219/1/4
f 209/1/4 212/1/4 220/1/4
f 212/7/4 213/7/4 220/7/4
f 213/1/4 218/1/4 221/1/4
f 220/7/4 213/7/4 221/7/4
f 218/7/4 219/7/4 222/7/4
f 221/1/4 218/1/4 222/1/4
f 219/1/4 210/1/4 223/1/4
f 222/7/4 219/7/4 223/7/4
f 207/5/4 209/5/4 224/5/4
f 221/1/4 222/1/4 224/1/4
f 222/1/4 223/1/4 224/1/4
f 209/1/4 220/1/4 224/1/4
f 220/1/4 221/1/4 224/1/4
f 223/1/4 210/1/4 225/1/4
f 224/1/4 223/1/4 225/1/4
f 210/7/4 211/7/4 225/7/4
f 225/7/4 211/7/4 226/7/4
f 207/5/4 224/5/4 227/5/4
f 227/5/4 224/5/4 228/5/4
f 229/4/4 230/4/4 231/4/4
f 231/4/4 230/4/4 232/4/4
f 231/1/4 232/1/4 234/1/4
f 232/1/4 233/1/4 234/1/4
f 234/1/4 233/1/4 235/1/4
f 235/1/4 233/1/4 236/1/4
f 234/4/4 235/4/4 237/4/4
f 237/4/4 235/4/4 238/4/4
f 237/1/4 238/1/4 240/1/4
f 238/1/4 239/1/4 240/1/4
f 240/1/4 239/1/4 241/1/4
f 241/1/4 239/1/4 242/1/4
f 240/4/4 241/4/4 243/4/4
f 243/4/4 241/4/4 244/4/4
f 243/2/4 244/2/4 246/2/4
f 246/2/4 244/2/4 247/2/4
f 246/2/4 247/2/4 249/2/4
f 247/2/4 248/2/4 249/2/4
f 245/2/4 246/2/4 249/2/4
f 249/2/4 248/2/4 250/2/4
f 250/2/4 248/2/4 251/2/4
f 251/2/4 248/2/4 252/2/4
f 250/2/4 251/2/4 253/2/4
f 253/2/4 251/2/4 254/2/4
f 254/2/4 251/2/4 255/2/4
f 255/2/4 251/2/4 256/2/4
f 254/2/4 255/2/4 257/2/4
f 257/2/4 255/2/4 258/2/4
f 261/5/5 260/5/5 259/5/5
f 262/5/5 260/5/5 261/5/5
f 265/2/5 264/2/5 263/2/5
f 266/2/5 264/2/5 265/2/5
f 269/2/5 268/2/5 267/2/5
f 270/2/5 268/2/5 269/2/5
f 276/5/5 272/5/5 271/5/5
f 277/5/5 274/5/5 273/5/5
f 279/5/5 276/5/5 275/5/5
f 280/5/5 272/5/5 276/5/5
f 280/5/5 276/5/5 279/5/5
f 281/5/5 278/5/5 277/5/5
f 281/5/5 277/5/5 273/5/5
f 282/5/5 278/5/5 281/5/5
f 283/5/5 272/5/5 280/5/5
f 284/5/5 272/5/5 283/5/5
f 285/5/5 281/5/5 273/5/5
f 286/5/5 281/5/5 285/5/5
f 288/5/5 279/5/5 275/5/5
f 289/5/5 279/5/5 288/5/5
f 290/5/5 278/5/5 282/5/5
f 291/5/5 278/5/5 290/5/5
f 296/4/5 288/4/5 287/4/5
f 297/1/5 289/1/5 288/1/5
f 297/4/5 288/4/5 296/4/5
f 298/4/5 290/4/5 289/4/5
f 298/1/5 289/1/5 297/1/5
f 299/1/5 291/1/5 290/1/5
f 299/4/5 290/4/5 298/4/5
f 300/4/5 292/4/5 291/4/5
f 300/1/5 291/1/5 299/1/5
f 301/2/5 293/2/5 292/2/5
f 301/4/5 292/4/5 300/4/5
f 302/2/5 293/2/5 301/2/5
f 303/2/5 295/2/5 294/2/5
f 304/2/5 295/2/5 303/2/5
f 307/2/5 306/2/5 305/2/5
f 308/2/5 306/2/5 307/2/5
f 311/1/5 310/1/5 309/1/5
f 312/1/5 310/1/5 311/1/5
f 313/2/6 314/2/6 315/2/6
f 315/2/6 314/2/6 316/2/6
f 317/4/6 318/4/6 326/4/6
f 326/4/6 318/4/6 327/4/6
f 319/4/6 320/4/6 328/4/6
f 328/4/6 320/4/6 329/4/6
f 321/4/6 322/4/6 330/4/6
f 322/2/6 323/2/6 331/2/6
f 330/4/6 322/4/6 331/4/6
f 331/2/6 323/2/6 332/2/6
f 324/2/6 325/2/6 333/2/6
f 333/2/6 325/2/6 334/2/6
f 335/5/6 336/5/6 340/5/6
f 337/5/6 338/5/6 341/5/6
f 339/5/6 340/5/6 343/5/6
f 340/5/6 336/5/6 344/5/6
f 343/5/6 340/5/6 344/5/6
f 341/5/6 342/5/6 345/5/6
f 337/5/6 341/5/6 345/5/6
f 345/5/6 342/5/6 346/5/6
f 344/5/6 336/5/6 347/5/6
f 347/5/6 336/5/6 348/5/6
f 337/5/6 345/5/6 349/5/6
f 349/5/6 345/5/6 350/5/6
f 339/5/6 343/5/6 351/5/6
f 351/5/6 343/5/6 352/5/6
f 346/5/6 342/5/6 353/5/6
f 353/5/6 342/5/6 354/5/6
f 351/1/6 352/1/6 357/1/6
f 357/1/6 352/1/6 358/1/6
f 353/1/6 354/1/6 359/1/6
f 359/1/6 354/1/6 360/1/6
f 355/2/6 356/2/6 361/2/6
f 361/2/6 356/2/6 362/2/6
f 367/6/6 368/6/6 369/6/6
f 369/6/6 368/6/6 370/6/6
f 363/5/6 364/5/6 371/5/6
f 371/5/6 364/5/6 372/5/6
f 365/5/6 366/5/6 373/5/6
f 373/5/6 366/5/6 374/5/6
f 375/2/6 376/2/6 377/2/6
f 377/2/6 376/2/6 378/2/6
f 379/7/6 380/7/6 381/7/6
f 381/7/6 380/7/6 382/7/6
