# MagicaVoxel @ Ephtracy

# group
g banks

# material
mtllib banks.mtl
usemtl palette

# normals
vn -1 0 0
vn 1 0 0
vn 0 0 1
vn 0 0 -1
vn 0 -1 0
vn 0 1 0

# texcoords
vt 0.00585938 0.5
vt 0.982422 0.5
vt 0.986328 0.5

# verts
v -20 0 10
v -20 0 -5
v -20 0 -7
v -20 1 -5
v -20 1 -7
v -20 2 10
v -20 2 7
v -20 2 -2
v -20 2 -5
v -20 3 7
v -20 3 -2
v -19 3 3
v -19 3 2
v -19 4 3
v -19 4 2
v -14 3 2
v -14 3 -0
v -14 4 2
v -14 4 -0
v -11 0 11
v -11 0 10
v -11 1 11
v -11 1 10
v -10 2 10
v -10 2 7
v -10 2 -2
v -10 2 -5
v -10 3 7
v -10 3 -2
v -10 3 -4
v -10 3 -5
v -10 4 10
v -10 4 -4
v -9 4 7
v -9 4 3
v -9 4 2
v -9 4 -0
v -9 5 7
v -9 5 3
v -9 5 2
v -9 5 -0
v -6 4 -2
v -6 4 -3
v -6 5 -2
v -6 5 -3
v -5 4 9
v -5 4 8
v -5 5 9
v -5 5 8
v -2 4 1
v -2 4 -0
v -2 5 1
v -2 5 -0
v 3 4 9
v 3 4 8
v 3 5 9
v 3 5 8
v 4 4 1
v 4 4 -4
v 4 5 1
v 4 5 -4
v 5 0 -6
v 5 0 -7
v 5 1 -5
v 5 1 -6
v 5 1 -7
v 5 2 -6
v 5 2 -7
v 5 2 -8
v 5 3 -4
v 5 3 -5
v 5 3 -7
v 5 3 -8
v 5 5 -4
v 5 5 -7
v 5 6 -4
v 5 6 -7
v 6 0 12
v 6 0 11
v 6 1 12
v 6 1 11
v 6 1 10
v 6 4 10
v 6 4 5
v 6 5 11
v 6 5 10
v 6 5 5
v 6 6 11
v 6 6 10
v 7 1 -6
v 7 1 -7
v 7 4 -6
v 7 4 -7
v 9 5 -0
v 9 5 -2
v 9 6 -0
v 9 6 -2
v 11 1 4
v 11 1 3
v 11 2 5
v 11 2 4
v 11 2 3
v 11 2 -0
v 11 3 1
v 11 3 -0
v 11 5 5
v 11 5 1
v 15 5 8
v 15 5 7
v 15 6 8
v 15 6 7
v 16 0 -7
v 16 0 -9
v 16 1 -7
v 16 1 -9
v -18 3 3
v -18 3 2
v -18 4 3
v -18 4 2
v -13 3 2
v -13 3 -0
v -13 4 2
v -13 4 -0
v -7 4 7
v -7 4 3
v -7 5 7
v -7 5 3
v -6 4 2
v -6 4 -0
v -6 5 2
v -6 5 -0
v -5 4 -2
v -5 4 -3
v -5 5 -2
v -5 5 -3
v -4 0 -6
v -4 0 -7
v -4 1 -6
v -4 1 -7
v -1 4 9
v -1 4 8
v -1 5 9
v -1 5 8
v 3 4 1
v 3 4 -0
v 3 5 1
v 3 5 -0
v 4 4 9
v 4 4 8
v 4 5 9
v 4 5 8
v 6 2 -6
v 6 2 -7
v 6 2 -8
v 6 3 -7
v 6 3 -8
v 6 4 -6
v 6 4 -7
v 6 5 -6
v 6 5 -7
v 6 6 -6
v 6 6 -7
v 7 5 11
v 7 5 10
v 7 5 -4
v 7 5 -6
v 7 6 11
v 7 6 10
v 7 6 -4
v 7 6 -6
v 8 4 -4
v 8 4 -7
v 8 5 -4
v 8 5 -7
v 10 1 4
v 10 1 3
v 10 2 5
v 10 2 4
v 10 2 3
v 10 2 -0
v 10 3 1
v 10 3 -0
v 10 4 5
v 10 4 1
v 11 4 -2
v 11 4 -4
v 11 5 -2
v 11 5 -4
v 17 5 8
v 17 5 7
v 17 6 8
v 17 6 7
v 18 1 -2
v 18 1 -7
v 18 4 -2
v 18 4 -7
v 19 1 -0
v 19 1 -2
v 19 5 -0
v 19 5 -2
v 19 6 -0
v 19 6 -2
v 20 0 12
v 20 0 11
v 20 0 -7
v 20 0 -9
v 20 1 12
v 20 1 11
v 20 1 -0
v 20 1 -7
v 20 1 -9
v 20 5 11
v 20 5 -0
v 6 0 12
v 6 1 12
v 20 0 12
v 20 1 12
v -11 0 11
v -11 1 11
v 6 0 11
v 6 1 11
v 6 5 11
v 6 6 11
v 7 5 11
v 7 6 11
v 20 1 11
v 20 5 11
v -20 0 10
v -20 2 10
v -11 0 10
v -11 1 10
v -10 2 10
v -10 4 10
v 6 1 10
v 6 4 10
v -5 4 9
v -5 5 9
v -1 4 9
v -1 5 9
v 3 4 9
v 3 5 9
v 4 4 9
v 4 5 9
v 15 5 8
v 15 6 8
v 17 5 8
v 17 6 8
v -20 2 7
v -20 3 7
v -10 2 7
v -10 3 7
v -9 4 7
v -9 5 7
v -8 4 7
v -8 5 7
v -7 4 7
v -7 5 7
v -19 3 3
v -19 4 3
v -18 3 3
v -18 4 3
v 10 1 3
v 10 2 3
v 11 1 3
v 11 2 3
v -14 3 2
v -14 4 2
v -13 3 2
v -13 4 2
v -9 4 2
v -9 5 2
v -6 4 2
v -6 5 2
v -2 4 1
v -2 5 1
v 3 4 1
v 3 5 1
v 4 4 1
v 4 5 1
v 10 3 1
v 10 4 1
v 11 3 1
v 11 5 1
v 9 5 -0
v 9 6 -0
v 10 2 -0
v 10 3 -0
v 11 2 -0
v 11 3 -0
v 19 5 -0
v 19 6 -0
v -6 4 -2
v -6 5 -2
v -5 4 -2
v -5 5 -2
v 5 5 -4
v 5 6 -4
v 7 5 -4
v 7 6 -4
v 6 5 10
v 6 6 10
v 7 5 10
v 7 6 10
v -5 4 8
v -5 5 8
v -1 4 8
v -1 5 8
v 3 4 8
v 3 5 8
v 4 4 8
v 4 5 8
v 15 5 7
v 15 6 7
v 17 5 7
v 17 6 7
v 6 4 5
v 6 5 5
v 10 2 5
v 10 4 5
v 11 2 5
v 11 5 5
v 10 1 4
v 10 2 4
v 11 1 4
v 11 2 4
v -9 4 3
v -9 5 3
v -8 4 3
v -8 5 3
v -7 4 3
v -7 5 3
v -19 3 2
v -19 4 2
v -18 3 2
v -18 4 2
v -14 3 -0
v -14 4 -0
v -13 3 -0
v -13 4 -0
v -9 4 -0
v -9 5 -0
v -6 4 -0
v -6 5 -0
v -2 4 -0
v -2 5 -0
v 3 4 -0
v 3 5 -0
v 19 1 -0
v 19 5 -0
v 20 1 -0
v 20 5 -0
v -20 2 -2
v -20 3 -2
v -10 2 -2
v -10 3 -2
v 9 5 -2
v 9 6 -2
v 11 4 -2
v 11 5 -2
v 18 1 -2
v 18 4 -2
v 19 1 -2
v 19 5 -2
v 19 6 -2
v -6 4 -3
v -6 5 -3
v -5 4 -3
v -5 5 -3
v -10 3 -4
v -10 4 -4
v 4 4 -4
v 4 5 -4
v 5 3 -4
v 5 5 -4
v 8 4 -4
v 8 5 -4
v 11 4 -4
v 11 5 -4
v -20 1 -5
v -20 2 -5
v -10 2 -5
v -10 3 -5
v -4 1 -5
v 5 1 -5
v 5 3 -5
v -4 0 -6
v -4 1 -6
v 5 0 -6
v 5 1 -6
v 5 2 -6
v 6 2 -6
v 6 4 -6
v 6 5 -6
v 6 6 -6
v 7 1 -6
v 7 4 -6
v 7 5 -6
v 7 6 -6
v -20 0 -7
v -20 1 -7
v -4 0 -7
v -4 1 -7
v 5 0 -7
v 5 1 -7
v 5 3 -7
v 5 5 -7
v 5 6 -7
v 6 3 -7
v 6 4 -7
v 6 5 -7
v 6 6 -7
v 7 1 -7
v 7 4 -7
v 8 4 -7
v 8 5 -7
v 16 0 -7
v 16 1 -7
v 18 1 -7
v 18 4 -7
v 5 2 -8
v 5 3 -8
v 6 2 -8
v 6 3 -8
v 16 0 -9
v 16 1 -9
v 20 0 -9
v 20 1 -9
v 6 0 12
v 20 0 12
v -11 0 11
v 6 0 11
v 20 0 11
v -20 0 10
v -11 0 10
v 6 0 10
v -20 0 -5
v -4 0 -5
v -4 0 -6
v 5 0 -6
v -20 0 -7
v -4 0 -7
v 5 0 -7
v 16 0 -7
v 20 0 -7
v 16 0 -9
v 20 0 -9
v 5 2 -6
v 6 2 -6
v 5 2 -7
v 6 2 -7
v 5 2 -8
v 6 2 -8
v 10 3 1
v 11 3 1
v 10 3 -0
v 11 3 -0
v 6 4 -6
v 7 4 -6
v 6 4 -7
v 7 4 -7
v 6 1 12
v 20 1 12
v -11 1 11
v 6 1 11
v 20 1 11
v -11 1 10
v 6 1 10
v 10 1 4
v 11 1 4
v 10 1 3
v 11 1 3
v 19 1 -0
v 20 1 -0
v 18 1 -2
v 19 1 -2
v -20 1 -5
v -4 1 -5
v 5 1 -5
v -4 1 -6
v 5 1 -6
v 7 1 -6
v -20 1 -7
v -4 1 -7
v 5 1 -7
v 7 1 -7
v 16 1 -7
v 18 1 -7
v 20 1 -7
v 16 1 -9
v 20 1 -9
v -20 2 10
v -10 2 10
v -20 2 7
v -10 2 7
v 10 2 5
v 11 2 5
v 10 2 4
v 11 2 4
v 10 2 3
v 11 2 3
v 10 2 -0
v 11 2 -0
v -20 2 -2
v -10 2 -2
v -20 2 -5
v -10 2 -5
v -20 3 7
v -10 3 7
v -19 3 3
v -18 3 3
v -19 3 2
v -18 3 2
v -14 3 2
v -13 3 2
v -14 3 -0
v -13 3 -0
v -20 3 -2
v -10 3 -2
v -10 3 -4
v 5 3 -4
v -10 3 -5
v 5 3 -5
v 5 3 -7
v 6 3 -7
v 5 3 -8
v 6 3 -8
v -10 4 10
v 6 4 10
v -5 4 9
v -1 4 9
v 3 4 9
v 4 4 9
v -5 4 8
v -1 4 8
v 3 4 8
v 4 4 8
v -9 4 7
v -8 4 7
v -7 4 7
v 6 4 5
v 10 4 5
v -19 4 3
v -18 4 3
v -9 4 3
v -8 4 3
v -7 4 3
v -19 4 2
v -18 4 2
v -14 4 2
v -13 4 2
v -9 4 2
v -6 4 2
v -2 4 1
v 3 4 1
v 4 4 1
v 10 4 1
v -14 4 -0
v -13 4 -0
v -9 4 -0
v -6 4 -0
v -2 4 -0
v 3 4 -0
v -6 4 -2
v -5 4 -2
v 11 4 -2
v 18 4 -2
v -6 4 -3
v -5 4 -3
v -10 4 -4
v 4 4 -4
v 8 4 -4
v 11 4 -4
v 8 4 -7
v 18 4 -7
v 7 5 11
v 20 5 11
v 6 5 10
v 7 5 10
v -5 5 9
v -1 5 9
v 3 5 9
v 4 5 9
v -5 5 8
v -1 5 8
v 3 5 8
v 4 5 8
v 15 5 8
v 17 5 8
v -9 5 7
v -8 5 7
v -7 5 7
v 15 5 7
v 17 5 7
v 6 5 5
v 11 5 5
v -9 5 3
v -8 5 3
v -7 5 3
v -9 5 2
v -6 5 2
v -2 5 1
v 3 5 1
v 4 5 1
v 11 5 1
v -9 5 -0
v -6 5 -0
v -2 5 -0
v 3 5 -0
v 9 5 -0
v 19 5 -0
v 20 5 -0
v -6 5 -2
v -5 5 -2
v 9 5 -2
v 11 5 -2
v -6 5 -3
v -5 5 -3
v 4 5 -4
v 5 5 -4
v 7 5 -4
v 8 5 -4
v 11 5 -4
v 6 5 -6
v 7 5 -6
v 6 5 -7
v 8 5 -7
v 6 6 11
v 7 6 11
v 6 6 10
v 7 6 10
v 15 6 8
v 17 6 8
v 15 6 7
v 17 6 7
v 9 6 -0
v 19 6 -0
v 9 6 -2
v 19 6 -2
v 5 6 -4
v 7 6 -4
v 6 6 -6
v 7 6 -6
v 5 6 -7
v 6 6 -7

# faces
f 4/1/1 2/1/1 1/1/1
f 4/2/1 3/2/1 2/2/1
f 5/2/1 3/2/1 4/2/1
f 6/1/1 4/1/1 1/1/1
f 7/1/1 4/1/1 6/1/1
f 8/1/1 4/1/1 7/1/1
f 9/1/1 4/1/1 8/1/1
f 10/1/1 8/1/1 7/1/1
f 11/1/1 8/1/1 10/1/1
f 14/3/1 13/3/1 12/3/1
f 15/3/1 13/3/1 14/3/1
f 18/3/1 17/3/1 16/3/1
f 19/3/1 17/3/1 18/3/1
f 22/2/1 21/2/1 20/2/1
f 23/2/1 21/2/1 22/2/1
f 28/1/1 25/1/1 24/1/1
f 29/1/1 27/1/1 26/1/1
f 30/1/1 27/1/1 29/1/1
f 31/1/1 27/1/1 30/1/1
f 32/1/1 28/1/1 24/1/1
f 32/1/1 29/1/1 28/1/1
f 32/1/1 30/1/1 29/1/1
f 33/1/1 30/1/1 32/1/1
f 38/3/1 35/3/1 34/3/1
f 39/3/1 35/3/1 38/3/1
f 40/3/1 37/3/1 36/3/1
f 41/3/1 37/3/1 40/3/1
f 44/3/1 43/3/1 42/3/1
f 45/3/1 43/3/1 44/3/1
f 48/3/1 47/3/1 46/3/1
f 49/3/1 47/3/1 48/3/1
f 52/3/1 51/3/1 50/3/1
f 53/3/1 51/3/1 52/3/1
f 56/3/1 55/3/1 54/3/1
f 57/3/1 55/3/1 56/3/1
f 60/1/1 59/1/1 58/1/1
f 61/1/1 59/1/1 60/1/1
f 65/1/1 63/1/1 62/1/1
f 66/1/1 63/1/1 65/1/1
f 67/1/1 65/1/1 64/1/1
f 71/1/1 68/1/1 67/1/1
f 71/1/1 67/1/1 64/1/1
f 72/2/1 69/2/1 68/2/1
f 72/1/1 68/1/1 71/1/1
f 73/2/1 69/2/1 72/2/1
f 74/1/1 71/1/1 70/1/1
f 74/1/1 72/1/1 71/1/1
f 75/1/1 72/1/1 74/1/1
f 76/2/1 75/2/1 74/2/1
f 77/2/1 75/2/1 76/2/1
f 80/2/1 79/2/1 78/2/1
f 81/2/1 79/2/1 80/2/1
f 83/1/1 82/1/1 81/1/1
f 85/1/1 83/1/1 81/1/1
f 85/1/1 84/1/1 83/1/1
f 86/1/1 84/1/1 85/1/1
f 87/1/1 84/1/1 86/1/1
f 88/2/1 86/2/1 85/2/1
f 89/2/1 86/2/1 88/2/1
f 92/1/1 91/1/1 90/1/1
f 93/1/1 91/1/1 92/1/1
f 96/2/1 95/2/1 94/2/1
f 97/2/1 95/2/1 96/2/1
f 101/1/1 99/1/1 98/1/1
f 102/1/1 99/1/1 101/1/1
f 104/1/1 101/1/1 100/1/1
f 104/1/1 103/1/1 102/1/1
f 104/1/1 102/1/1 101/1/1
f 105/1/1 103/1/1 104/1/1
f 106/1/1 104/1/1 100/1/1
f 107/1/1 104/1/1 106/1/1
f 110/2/1 109/2/1 108/2/1
f 111/2/1 109/2/1 110/2/1
f 114/2/1 113/2/1 112/2/1
f 115/2/1 113/2/1 114/2/1
f 116/3/2 117/3/2 118/3/2
f 118/3/2 117/3/2 119/3/2
f 120/3/2 121/3/2 122/3/2
f 122/3/2 121/3/2 123/3/2
f 124/2/2 125/2/2 126/2/2
f 126/2/2 125/2/2 127/2/2
f 128/3/2 129/3/2 130/3/2
f 130/3/2 129/3/2 131/3/2
f 132/3/2 133/3/2 134/3/2
f 134/3/2 133/3/2 135/3/2
f 136/2/2 137/2/2 138/2/2
f 138/2/2 137/2/2 139/2/2
f 140/3/2 141/3/2 142/3/2
f 142/3/2 141/3/2 143/3/2
f 144/3/2 145/3/2 146/3/2
f 146/3/2 145/3/2 147/3/2
f 148/3/2 149/3/2 150/3/2
f 150/3/2 149/3/2 151/3/2
f 152/1/2 153/1/2 155/1/2
f 153/2/2 154/2/2 155/2/2
f 155/2/2 154/2/2 156/2/2
f 152/1/2 155/1/2 157/1/2
f 157/1/2 155/1/2 158/1/2
f 159/2/2 160/2/2 161/2/2
f 161/2/2 160/2/2 162/2/2
f 163/2/2 164/2/2 167/2/2
f 167/2/2 164/2/2 168/2/2
f 165/2/2 166/2/2 169/2/2
f 169/2/2 166/2/2 170/2/2
f 171/1/2 172/1/2 173/1/2
f 173/1/2 172/1/2 174/1/2
f 175/1/2 176/1/2 178/1/2
f 178/1/2 176/1/2 179/1/2
f 177/1/2 178/1/2 181/1/2
f 179/1/2 180/1/2 181/1/2
f 178/1/2 179/1/2 181/1/2
f 181/1/2 180/1/2 182/1/2
f 177/1/2 181/1/2 183/1/2
f 183/1/2 181/1/2 184/1/2
f 185/1/2 186/1/2 187/1/2
f 187/1/2 186/1/2 188/1/2
f 189/2/2 190/2/2 191/2/2
f 191/2/2 190/2/2 192/2/2
f 193/1/2 194/1/2 195/1/2
f 195/1/2 194/1/2 196/1/2
f 197/1/2 198/1/2 199/1/2
f 199/1/2 198/1/2 200/1/2
f 199/2/2 200/2/2 201/2/2
f 201/2/2 200/2/2 202/2/2
f 203/2/2 204/2/2 207/2/2
f 204/1/2 205/1/2 208/1/2
f 207/2/2 204/2/2 208/2/2
f 208/1/2 205/1/2 209/1/2
f 205/2/2 206/2/2 210/2/2
f 209/1/2 205/1/2 210/1/2
f 210/2/2 206/2/2 211/2/2
f 208/1/2 209/1/2 212/1/2
f 212/1/2 209/1/2 213/1/2
f 216/2/3 215/2/3 214/2/3
f 217/2/3 215/2/3 216/2/3
f 220/2/3 219/2/3 218/2/3
f 221/2/3 219/2/3 220/2/3
f 224/2/3 223/2/3 222/2/3
f 224/1/3 222/1/3 221/1/3
f 225/2/3 223/2/3 224/2/3
f 226/1/3 224/1/3 221/1/3
f 227/1/3 224/1/3 226/1/3
f 230/1/3 229/1/3 228/1/3
f 231/1/3 229/1/3 230/1/3
f 232/1/3 229/1/3 231/1/3
f 234/1/3 232/1/3 231/1/3
f 234/1/3 233/1/3 232/1/3
f 235/1/3 233/1/3 234/1/3
f 238/3/3 237/3/3 236/3/3
f 239/3/3 237/3/3 238/3/3
f 242/3/3 241/3/3 240/3/3
f 243/3/3 241/3/3 242/3/3
f 246/2/3 245/2/3 244/2/3
f 247/2/3 245/2/3 246/2/3
f 250/1/3 249/1/3 248/1/3
f 251/1/3 249/1/3 250/1/3
f 254/3/3 253/3/3 252/3/3
f 255/3/3 253/3/3 254/3/3
f 256/2/3 255/2/3 254/2/3
f 257/2/3 255/2/3 256/2/3
f 260/3/3 259/3/3 258/3/3
f 261/3/3 259/3/3 260/3/3
f 264/1/3 263/1/3 262/1/3
f 265/1/3 263/1/3 264/1/3
f 268/3/3 267/3/3 266/3/3
f 269/3/3 267/3/3 268/3/3
f 272/3/3 271/3/3 270/3/3
f 273/3/3 271/3/3 272/3/3
f 276/3/3 275/3/3 274/3/3
f 277/3/3 275/3/3 276/3/3
f 281/1/3 279/1/3 278/1/3
f 282/1/3 281/1/3 280/1/3
f 283/1/3 279/1/3 281/1/3
f 283/1/3 281/1/3 282/1/3
f 288/1/3 287/1/3 286/1/3
f 289/1/3 287/1/3 288/1/3
f 290/2/3 285/2/3 284/2/3
f 291/2/3 285/2/3 290/2/3
f 294/3/3 293/3/3 292/3/3
f 295/3/3 293/3/3 294/3/3
f 298/2/3 297/2/3 296/2/3
f 299/2/3 297/2/3 298/2/3
f 300/2/4 301/2/4 302/2/4
f 302/2/4 301/2/4 303/2/4
f 304/3/4 305/3/4 306/3/4
f 306/3/4 305/3/4 307/3/4
f 308/3/4 309/3/4 310/3/4
f 310/3/4 309/3/4 311/3/4
f 312/2/4 313/2/4 314/2/4
f 314/2/4 313/2/4 315/2/4
f 316/1/4 317/1/4 319/1/4
f 318/1/4 319/1/4 320/1/4
f 319/1/4 317/1/4 321/1/4
f 320/1/4 319/1/4 321/1/4
f 322/1/4 323/1/4 324/1/4
f 324/1/4 323/1/4 325/1/4
f 326/3/4 327/3/4 328/3/4
f 328/3/4 327/3/4 329/3/4
f 328/2/4 329/2/4 330/2/4
f 330/2/4 329/2/4 331/2/4
f 332/3/4 333/3/4 334/3/4
f 334/3/4 333/3/4 335/3/4
f 336/3/4 337/3/4 338/3/4
f 338/3/4 337/3/4 339/3/4
f 340/3/4 341/3/4 342/3/4
f 342/3/4 341/3/4 343/3/4
f 344/3/4 345/3/4 346/3/4
f 346/3/4 345/3/4 347/3/4
f 348/1/4 349/1/4 350/1/4
f 350/1/4 349/1/4 351/1/4
f 352/1/4 353/1/4 354/1/4
f 354/1/4 353/1/4 355/1/4
f 356/2/4 357/2/4 359/2/4
f 358/1/4 359/1/4 361/1/4
f 360/1/4 361/1/4 362/1/4
f 359/2/4 357/2/4 363/2/4
f 362/1/4 361/1/4 363/1/4
f 361/1/4 359/1/4 363/1/4
f 363/2/4 357/2/4 364/2/4
f 365/3/4 366/3/4 367/3/4
f 367/3/4 366/3/4 368/3/4
f 369/1/4 370/1/4 371/1/4
f 369/1/4 371/1/4 373/1/4
f 371/1/4 372/1/4 373/1/4
f 373/1/4 372/1/4 374/1/4
f 375/1/4 376/1/4 377/1/4
f 377/1/4 376/1/4 378/1/4
f 379/1/4 380/1/4 381/1/4
f 379/1/4 381/1/4 383/1/4
f 381/1/4 382/1/4 383/1/4
f 383/1/4 382/1/4 384/1/4
f 384/1/4 382/1/4 385/1/4
f 386/1/4 387/1/4 388/1/4
f 388/1/4 387/1/4 389/1/4
f 389/1/4 390/1/4 391/1/4
f 389/1/4 391/1/4 395/1/4
f 391/1/4 392/1/4 395/1/4
f 395/1/4 392/1/4 396/1/4
f 393/2/4 394/2/4 397/2/4
f 397/2/4 394/2/4 398/2/4
f 399/2/4 400/2/4 401/2/4
f 401/2/4 400/2/4 402/2/4
f 405/1/4 406/1/4 408/1/4
f 408/1/4 406/1/4 409/1/4
f 406/2/4 407/2/4 410/2/4
f 409/1/4 406/1/4 410/1/4
f 410/2/4 407/2/4 411/2/4
f 403/1/4 404/1/4 412/1/4
f 409/1/4 410/1/4 413/1/4
f 413/1/4 410/1/4 414/1/4
f 412/1/4 413/1/4 414/1/4
f 414/1/4 410/1/4 415/1/4
f 403/1/4 412/1/4 416/1/4
f 412/1/4 414/1/4 416/1/4
f 416/1/4 414/1/4 417/1/4
f 417/1/4 414/1/4 418/1/4
f 418/1/4 414/1/4 419/1/4
f 420/2/4 421/2/4 422/2/4
f 422/2/4 421/2/4 423/2/4
f 424/2/4 425/2/4 426/2/4
f 426/2/4 425/2/4 427/2/4
f 431/2/5 429/2/5 428/2/5
f 432/2/5 429/2/5 431/2/5
f 434/2/5 431/2/5 430/2/5
f 435/1/5 432/1/5 431/1/5
f 435/2/5 431/2/5 434/2/5
f 436/1/5 434/1/5 433/1/5
f 436/1/5 435/1/5 434/1/5
f 437/1/5 435/1/5 436/1/5
f 438/2/5 437/2/5 436/2/5
f 438/1/5 435/1/5 437/1/5
f 439/1/5 435/1/5 438/1/5
f 440/2/5 438/2/5 436/2/5
f 441/2/5 438/2/5 440/2/5
f 442/1/5 435/1/5 439/1/5
f 443/1/5 432/1/5 435/1/5
f 443/1/5 435/1/5 442/1/5
f 444/1/5 432/1/5 443/1/5
f 445/2/5 444/2/5 443/2/5
f 446/2/5 444/2/5 445/2/5
f 449/1/5 448/1/5 447/1/5
f 450/1/5 448/1/5 449/1/5
f 451/2/5 450/2/5 449/2/5
f 452/2/5 450/2/5 451/2/5
f 455/1/5 454/1/5 453/1/5
f 456/1/5 454/1/5 455/1/5
f 459/1/5 458/1/5 457/1/5
f 460/1/5 458/1/5 459/1/5
f 461/2/6 462/2/6 464/2/6
f 464/2/6 462/2/6 465/2/6
f 463/2/6 464/2/6 466/2/6
f 466/2/6 464/2/6 467/2/6
f 468/1/6 469/1/6 470/1/6
f 470/1/6 469/1/6 471/1/6
f 472/1/6 473/1/6 475/1/6
f 476/2/6 477/2/6 479/2/6
f 477/1/6 478/1/6 479/1/6
f 479/1/6 478/1/6 480/1/6
f 476/2/6 479/2/6 482/2/6
f 482/2/6 479/2/6 483/2/6
f 480/1/6 481/1/6 484/1/6
f 484/1/6 481/1/6 485/1/6
f 474/1/6 475/1/6 487/1/6
f 475/1/6 473/1/6 488/1/6
f 487/1/6 475/1/6 488/1/6
f 486/2/6 487/2/6 489/2/6
f 487/2/6 488/2/6 489/2/6
f 489/2/6 488/2/6 490/2/6
f 491/1/6 492/1/6 493/1/6
f 493/1/6 492/1/6 494/1/6
f 495/1/6 496/1/6 497/1/6
f 497/1/6 496/1/6 498/1/6
f 499/1/6 500/1/6 501/1/6
f 501/1/6 500/1/6 502/1/6
f 503/1/6 504/1/6 505/1/6
f 505/1/6 504/1/6 506/1/6
f 507/1/6 508/1/6 509/1/6
f 509/1/6 508/1/6 510/1/6
f 507/1/6 509/1/6 511/1/6
f 510/1/6 508/1/6 512/1/6
f 512/1/6 508/1/6 513/1/6
f 513/1/6 508/1/6 514/1/6
f 511/1/6 512/1/6 515/1/6
f 512/1/6 513/1/6 515/1/6
f 514/1/6 508/1/6 516/1/6
f 507/1/6 511/1/6 517/1/6
f 515/1/6 516/1/6 517/1/6
f 511/1/6 515/1/6 517/1/6
f 516/1/6 508/1/6 518/1/6
f 517/1/6 516/1/6 518/1/6
f 519/1/6 520/1/6 521/1/6
f 521/1/6 520/1/6 522/1/6
f 523/2/6 524/2/6 525/2/6
f 525/2/6 524/2/6 526/2/6
f 527/1/6 528/1/6 529/1/6
f 529/1/6 528/1/6 530/1/6
f 530/1/6 528/1/6 531/1/6
f 531/1/6 528/1/6 532/1/6
f 527/1/6 529/1/6 533/1/6
f 530/1/6 531/1/6 534/1/6
f 534/1/6 531/1/6 535/1/6
f 532/1/6 528/1/6 536/1/6
f 534/1/6 535/1/6 537/1/6
f 535/1/6 536/1/6 537/1/6
f 527/1/6 533/1/6 537/1/6
f 533/1/6 534/1/6 537/1/6
f 537/1/6 536/1/6 538/1/6
f 538/1/6 536/1/6 539/1/6
f 536/1/6 528/1/6 540/1/6
f 539/1/6 536/1/6 540/1/6
f 527/1/6 537/1/6 544/1/6
f 539/1/6 540/1/6 546/1/6
f 540/1/6 541/1/6 546/1/6
f 542/3/6 543/3/6 547/3/6
f 547/3/6 543/3/6 548/3/6
f 545/1/6 546/1/6 551/1/6
f 544/1/6 545/1/6 551/1/6
f 527/1/6 544/1/6 551/1/6
f 546/1/6 541/1/6 552/1/6
f 551/1/6 546/1/6 552/1/6
f 552/1/6 541/1/6 553/1/6
f 553/1/6 541/1/6 554/1/6
f 554/1/6 541/1/6 555/1/6
f 555/1/6 541/1/6 556/1/6
f 549/3/6 550/3/6 557/3/6
f 557/3/6 550/3/6 558/3/6
f 527/1/6 551/1/6 559/1/6
f 552/1/6 553/1/6 560/1/6
f 560/1/6 553/1/6 561/1/6
f 554/1/6 555/1/6 562/1/6
f 561/1/6 562/1/6 563/1/6
f 560/1/6 561/1/6 563/1/6
f 559/1/6 560/1/6 563/1/6
f 563/1/6 562/1/6 564/1/6
f 559/1/6 563/1/6 567/1/6
f 564/1/6 562/1/6 568/1/6
f 559/1/6 567/1/6 569/1/6
f 567/1/6 568/1/6 569/1/6
f 527/1/6 559/1/6 569/1/6
f 568/1/6 562/1/6 570/1/6
f 569/1/6 568/1/6 570/1/6
f 562/1/6 555/1/6 570/1/6
f 565/1/6 566/1/6 572/1/6
f 571/1/6 572/1/6 573/1/6
f 572/1/6 566/1/6 574/1/6
f 573/1/6 572/1/6 574/1/6
f 575/1/6 576/1/6 578/1/6
f 579/3/6 580/3/6 583/3/6
f 583/3/6 580/3/6 584/3/6
f 581/3/6 582/3/6 585/3/6
f 585/3/6 582/3/6 586/3/6
f 578/1/6 576/1/6 587/1/6
f 577/1/6 578/1/6 587/1/6
f 587/1/6 576/1/6 588/1/6
f 577/1/6 587/1/6 592/1/6
f 588/1/6 576/1/6 593/1/6
f 577/1/6 592/1/6 594/1/6
f 592/1/6 593/1/6 594/1/6
f 594/1/6 593/1/6 595/1/6
f 589/3/6 590/3/6 596/3/6
f 590/2/6 591/2/6 597/2/6
f 596/3/6 590/3/6 597/3/6
f 597/2/6 591/2/6 598/2/6
f 595/1/6 593/1/6 604/1/6
f 599/3/6 600/3/6 605/3/6
f 605/3/6 600/3/6 606/3/6
f 601/3/6 602/3/6 607/3/6
f 607/3/6 602/3/6 608/3/6
f 603/1/6 604/1/6 609/1/6
f 593/1/6 576/1/6 610/1/6
f 609/1/6 604/1/6 610/1/6
f 604/1/6 593/1/6 610/1/6
f 610/1/6 576/1/6 611/1/6
f 603/1/6 609/1/6 614/1/6
f 612/3/6 613/3/6 616/3/6
f 616/3/6 613/3/6 617/3/6
f 614/1/6 615/1/6 618/1/6
f 603/1/6 614/1/6 618/1/6
f 618/1/6 615/1/6 619/1/6
f 619/1/6 615/1/6 620/1/6
f 620/1/6 615/1/6 621/1/6
f 621/1/6 615/1/6 622/1/6
f 620/1/6 621/1/6 624/1/6
f 623/1/6 624/1/6 625/1/6
f 624/1/6 621/1/6 626/1/6
f 625/1/6 624/1/6 626/1/6
f 627/2/6 628/2/6 629/2/6
f 629/2/6 628/2/6 630/2/6
f 631/2/6 632/2/6 633/2/6
f 633/2/6 632/2/6 634/2/6
f 635/2/6 636/2/6 637/2/6
f 637/2/6 636/2/6 638/2/6
f 639/2/6 640/2/6 641/2/6
f 641/2/6 640/2/6 642/2/6
f 639/2/6 641/2/6 643/2/6
f 643/2/6 641/2/6 644/2/6
