# MagicaVoxel @ Ephtracy

# group
g rock2

# material
mtllib rock2.mtl
usemtl palette

# normals
vn -1 0 0
vn 1 0 0
vn 0 0 1
vn 0 0 -1
vn 0 -1 0
vn 0 1 0

# texcoords
vt 0.982422 0.5
vt 0.986328 0.5

# verts
v -7 0 7
v -7 0 -7
v -7 1 7
v -7 1 4
v -7 1 -3
v -7 1 -7
v -7 5 4
v -7 5 3
v -7 6 3
v -7 6 1
v -7 7 4
v -7 7 3
v -7 7 2
v -7 7 1
v -7 8 3
v -7 8 2
v -7 8 -1
v -7 8 -3
v -7 10 4
v -7 10 3
v -7 10 -2
v -7 10 -3
v -7 11 3
v -7 11 -1
v -7 11 -2
v -6 1 6
v -6 1 4
v -6 1 -3
v -6 1 -6
v -6 3 6
v -6 3 5
v -6 4 5
v -6 4 4
v -6 5 4
v -6 5 3
v -6 6 3
v -6 6 1
v -6 7 4
v -6 7 3
v -6 7 2
v -6 7 1
v -6 7 -3
v -6 7 -6
v -6 8 3
v -6 8 2
v -6 10 4
v -6 10 3
v -6 10 -2
v -6 10 -3
v -6 11 4
v -6 11 3
v -6 11 -2
v -6 11 -3
v -5 3 6
v -5 3 5
v -5 4 6
v -5 4 5
v -4 4 6
v -4 4 4
v -4 6 6
v -4 6 5
v -4 7 6
v -4 7 5
v -4 7 -3
v -4 7 -6
v -4 9 -4
v -4 9 -6
v -4 10 6
v -4 10 4
v -4 10 1
v -4 10 -0
v -4 10 -3
v -4 10 -4
v -4 11 1
v -4 11 -0
v -3 0 -7
v -3 0 -8
v -3 1 -6
v -3 1 -7
v -3 6 6
v -3 6 5
v -3 7 6
v -3 7 5
v -3 8 -6
v -3 8 -7
v -3 8 -8
v -3 9 -4
v -3 9 -6
v -3 9 -7
v -3 10 6
v -3 10 4
v -3 10 -4
v -3 10 -5
v -3 10 -6
v -3 11 4
v -3 11 -2
v -3 11 -4
v -3 11 -5
v -3 12 6
v -3 12 4
v -3 12 1
v -3 12 -2
v -3 13 4
v -3 13 1
v -2 8 -7
v -2 8 -8
v -2 9 -7
v -2 9 -8
v -2 10 -2
v -2 10 -4
v -2 11 -3
v -2 11 -4
v -2 12 6
v -2 12 4
v -2 12 -2
v -2 12 -3
v -2 13 6
v -2 13 5
v -2 13 4
v -2 13 3
v -2 13 2
v -2 14 5
v -2 14 4
v -2 14 3
v -2 14 2
v -1 9 -5
v -1 9 -6
v -1 10 -5
v -1 10 -6
v -1 13 6
v -1 13 5
v -1 13 4
v -1 13 3
v -1 14 5
v -1 14 4
v -1 14 3
v -1 18 6
v -1 18 3
v 1 11 2
v 1 11 -0
v 1 12 1
v 1 12 -0
v 1 13 2
v 1 13 1
v 2 9 -4
v 2 9 -5
v 2 11 -4
v 2 11 -5
v -5 10 1
v -5 10 -0
v -5 11 1
v -5 11 -0
v -4 10 -2
v -4 10 -3
v -4 11 -2
v -4 11 -3
v -2 9 -5
v -2 9 -6
v -2 10 -5
v -2 10 -6
v 0 11 2
v 0 11 -0
v 0 12 1
v 0 12 -0
v 0 13 2
v 0 13 1
v 1 9 -4
v 1 9 -6
v 1 10 -5
v 1 10 -6
v 1 11 -4
v 1 11 -5
v 2 8 -5
v 2 8 -6
v 2 8 -7
v 2 8 -8
v 2 9 -5
v 2 9 -6
v 2 9 -7
v 2 9 -8
v 2 11 -2
v 2 11 -3
v 2 12 3
v 2 12 2
v 2 12 1
v 2 12 -2
v 2 12 -3
v 2 13 3
v 2 13 2
v 2 13 1
v 2 14 6
v 2 14 3
v 2 18 6
v 2 18 3
v 3 0 -7
v 3 0 -8
v 3 1 -6
v 3 1 -7
v 3 8 -6
v 3 8 -7
v 3 8 -8
v 3 9 -6
v 3 9 -7
v 3 11 -1
v 3 11 -2
v 3 12 -1
v 3 12 -2
v 3 13 6
v 3 13 3
v 3 13 2
v 3 14 6
v 3 14 3
v 3 14 2
v 4 10 6
v 4 10 -5
v 4 11 3
v 4 11 2
v 4 11 -1
v 4 11 -5
v 4 12 3
v 4 12 2
v 4 12 -1
v 4 13 6
v 4 13 3
v 5 4 6
v 5 4 4
v 5 7 -3
v 5 7 -6
v 5 8 -5
v 5 8 -6
v 5 10 6
v 5 10 4
v 5 10 -3
v 5 10 -5
v 7 1 6
v 7 1 4
v 7 1 -3
v 7 1 -6
v 7 2 -2
v 7 2 -3
v 7 4 6
v 7 4 4
v 7 5 -2
v 7 5 -3
v 7 7 -3
v 7 7 -6
v 7 8 -1
v 7 8 -3
v 7 9 4
v 7 9 2
v 7 10 4
v 7 10 2
v 7 10 -1
v 7 10 -3
v 8 0 7
v 8 0 -7
v 8 1 7
v 8 1 4
v 8 1 -3
v 8 1 -7
v 8 2 -2
v 8 2 -3
v 8 5 -2
v 8 5 -3
v 8 8 -1
v 8 8 -3
v 8 9 4
v 8 9 2
v 8 10 2
v 8 10 -1
v -7 0 7
v -7 1 7
v 8 0 7
v 8 1 7
v -6 1 6
v -6 3 6
v -5 3 6
v -5 4 6
v -4 4 6
v -4 6 6
v -4 7 6
v -4 10 6
v -3 6 6
v -3 7 6
v -3 10 6
v -3 12 6
v -2 12 6
v -2 13 6
v -1 13 6
v -1 18 6
v 2 14 6
v 2 18 6
v 3 13 6
v 3 14 6
v 4 10 6
v 4 13 6
v 5 4 6
v 5 10 6
v 7 1 6
v 7 4 6
v -6 3 5
v -6 4 5
v -5 3 5
v -5 4 5
v -4 6 5
v -4 7 5
v -3 6 5
v -3 7 5
v -2 13 5
v -2 14 5
v -1 13 5
v -1 14 5
v -7 1 4
v -7 5 4
v -7 7 4
v -7 10 4
v -6 1 4
v -6 4 4
v -6 5 4
v -6 7 4
v -6 10 4
v -6 11 4
v -4 4 4
v -4 10 4
v -3 10 4
v -3 11 4
v -3 12 4
v -3 13 4
v -2 12 4
v -2 13 4
v 5 4 4
v 5 10 4
v 7 1 4
v 7 4 4
v 7 9 4
v 7 10 4
v 8 1 4
v 8 9 4
v -7 5 3
v -7 6 3
v -7 10 3
v -7 11 3
v -6 5 3
v -6 6 3
v -6 10 3
v -6 11 3
v -2 13 3
v -2 14 3
v -1 13 3
v -1 14 3
v -7 7 2
v -7 8 2
v -6 7 2
v -6 8 2
v 7 9 2
v 7 10 2
v 8 9 2
v 8 10 2
v -7 6 1
v -7 7 1
v -6 6 1
v -6 7 1
v -5 10 -0
v -5 11 -0
v -4 10 -0
v -4 11 -0
v 0 11 -0
v 0 12 -0
v 1 11 -0
v 1 12 -0
v -3 10 -4
v -3 11 -4
v -2 10 -4
v -2 11 -4
v 2 8 -6
v 2 9 -6
v 3 8 -6
v 3 9 -6
v -2 13 4
v -2 14 4
v -1 13 4
v -1 14 4
v -7 7 3
v -7 8 3
v -6 7 3
v -6 8 3
v -1 14 3
v -1 18 3
v 2 12 3
v 2 13 3
v 2 14 3
v 2 18 3
v 3 13 3
v 4 12 3
v 4 13 3
v -2 13 2
v -2 14 2
v 0 11 2
v 0 13 2
v 1 11 2
v 1 13 2
v 2 13 2
v 2 14 2
v 3 13 2
v 3 14 2
v -5 10 1
v -5 11 1
v -4 10 1
v -4 11 1
v -3 12 1
v -3 13 1
v 0 12 1
v 0 13 1
v 1 12 1
v 1 13 1
v 2 12 1
v 2 13 1
v 3 11 -1
v 3 12 -1
v 4 11 -1
v 4 12 -1
v 7 8 -1
v 7 10 -1
v 8 8 -1
v 8 10 -1
v -7 10 -2
v -7 11 -2
v -6 10 -2
v -6 11 -2
v -4 10 -2
v -4 11 -2
v -3 11 -2
v -3 12 -2
v -2 10 -2
v -2 12 -2
v 2 11 -2
v 2 12 -2
v 3 11 -2
v 3 12 -2
v 7 2 -2
v 7 5 -2
v 8 2 -2
v 8 5 -2
v -7 1 -3
v -7 8 -3
v -7 10 -3
v -6 1 -3
v -6 7 -3
v -6 8 -3
v -6 10 -3
v -6 11 -3
v -4 7 -3
v -4 10 -3
v -4 11 -3
v -2 11 -3
v -2 12 -3
v 2 11 -3
v 2 12 -3
v 5 7 -3
v 5 10 -3
v 7 1 -3
v 7 2 -3
v 7 5 -3
v 7 7 -3
v 7 8 -3
v 7 10 -3
v 8 1 -3
v 8 2 -3
v 8 5 -3
v 8 8 -3
v -4 9 -4
v -4 10 -4
v -3 9 -4
v -3 10 -4
v 1 9 -4
v 1 11 -4
v 2 9 -4
v 2 11 -4
v -3 10 -5
v -3 11 -5
v -2 9 -5
v -2 10 -5
v -1 9 -5
v -1 10 -5
v 1 10 -5
v 1 11 -5
v 2 8 -5
v 2 9 -5
v 2 11 -5
v 4 10 -5
v 4 11 -5
v 5 8 -5
v 5 10 -5
v -6 1 -6
v -6 7 -6
v -4 7 -6
v -4 9 -6
v -3 1 -6
v -3 8 -6
v -3 9 -6
v -3 10 -6
v -2 9 -6
v -2 10 -6
v -1 9 -6
v -1 10 -6
v 1 9 -6
v 1 10 -6
v 3 1 -6
v 3 8 -6
v 5 7 -6
v 5 8 -6
v 7 1 -6
v 7 7 -6
v -7 0 -7
v -7 1 -7
v -3 0 -7
v -3 1 -7
v -3 8 -7
v -3 9 -7
v -2 8 -7
v -2 9 -7
v 2 8 -7
v 2 9 -7
v 3 0 -7
v 3 1 -7
v 3 8 -7
v 3 9 -7
v 8 0 -7
v 8 1 -7
v -3 0 -8
v -3 8 -8
v -2 8 -8
v -2 9 -8
v 0 8 -8
v 0 9 -8
v 2 8 -8
v 2 9 -8
v 3 0 -8
v 3 8 -8
v -7 0 7
v 8 0 7
v -3 0 3
v -2 0 3
v -3 0 -2
v -2 0 -2
v -7 0 -7
v -3 0 -7
v 3 0 -7
v 8 0 -7
v -3 0 -8
v 3 0 -8
v 7 5 -2
v 8 5 -2
v 7 5 -3
v 8 5 -3
v -4 7 6
v -3 7 6
v -4 7 5
v -3 7 5
v -7 7 4
v -6 7 4
v -7 7 3
v -6 7 3
v -7 7 2
v -6 7 2
v -7 7 1
v -6 7 1
v -7 8 3
v -6 8 3
v -7 8 2
v -6 8 2
v 2 13 3
v 3 13 3
v 2 13 2
v 3 13 2
v -7 1 7
v 8 1 7
v -6 1 6
v 7 1 6
v -7 1 4
v -6 1 4
v 7 1 4
v 8 1 4
v -7 1 -3
v -6 1 -3
v 7 1 -3
v 8 1 -3
v -6 1 -6
v -3 1 -6
v 3 1 -6
v 7 1 -6
v -7 1 -7
v -3 1 -7
v 3 1 -7
v 8 1 -7
v 7 2 -2
v 8 2 -2
v 7 2 -3
v 8 2 -3
v -6 3 6
v -5 3 6
v -6 3 5
v -5 3 5
v -5 4 6
v -4 4 6
v 5 4 6
v 7 4 6
v -6 4 5
v -5 4 5
v -6 4 4
v -4 4 4
v 5 4 4
v 7 4 4
v -7 5 4
v -6 5 4
v -7 5 3
v -6 5 3
v -4 6 6
v -3 6 6
v -4 6 5
v -3 6 5
v -7 6 3
v -6 6 3
v -7 6 1
v -6 6 1
v -6 7 -3
v -4 7 -3
v 5 7 -3
v 7 7 -3
v -6 7 -6
v -4 7 -6
v 5 7 -6
v 7 7 -6
v 7 8 -1
v 8 8 -1
v 7 8 -3
v 8 8 -3
v 2 8 -5
v 5 8 -5
v 2 8 -6
v 3 8 -6
v 5 8 -6
v -3 8 -7
v -2 8 -7
v 2 8 -7
v 3 8 -7
v -3 8 -8
v -2 8 -8
v 2 8 -8
v 3 8 -8
v 7 9 4
v 8 9 4
v 7 9 2
v 8 9 2
v -4 9 -4
v -3 9 -4
v 1 9 -4
v 2 9 -4
v -2 9 -5
v -1 9 -5
v 2 9 -5
v -4 9 -6
v -3 9 -6
v -2 9 -6
v -1 9 -6
v 1 9 -6
v 2 9 -6
v 3 9 -6
v -3 9 -7
v -2 9 -7
v 0 9 -7
v 2 9 -7
v 3 9 -7
v -2 9 -8
v 0 9 -8
v 2 9 -8
v -4 10 6
v -3 10 6
v 4 10 6
v 5 10 6
v -7 10 4
v -6 10 4
v -4 10 4
v -3 10 4
v 5 10 4
v 7 10 4
v -7 10 3
v -6 10 3
v 7 10 2
v 8 10 2
v -5 10 1
v -4 10 1
v -5 10 -0
v -4 10 -0
v 7 10 -1
v 8 10 -1
v -7 10 -2
v -6 10 -2
v -4 10 -2
v -2 10 -2
v -7 10 -3
v -6 10 -3
v -4 10 -3
v 5 10 -3
v 7 10 -3
v -4 10 -4
v -3 10 -4
v -2 10 -4
v -3 10 -5
v -2 10 -5
v -1 10 -5
v 1 10 -5
v 4 10 -5
v 5 10 -5
v -3 10 -6
v -2 10 -6
v -1 10 -6
v 1 10 -6
v -6 11 4
v -3 11 4
v -7 11 3
v -6 11 3
v 0 11 2
v 1 11 2
v -5 11 1
v -4 11 1
v -5 11 -0
v -4 11 -0
v 0 11 -0
v 1 11 -0
v -7 11 -1
v -6 11 -1
v 3 11 -1
v 4 11 -1
v -7 11 -2
v -6 11 -2
v -4 11 -2
v -3 11 -2
v 2 11 -2
v 3 11 -2
v -6 11 -3
v -4 11 -3
v -2 11 -3
v 2 11 -3
v -3 11 -4
v -2 11 -4
v 1 11 -4
v 2 11 -4
v -3 11 -5
v 1 11 -5
v 2 11 -5
v 4 11 -5
v -3 12 6
v -2 12 6
v -3 12 4
v -2 12 4
v 2 12 3
v 4 12 3
v 2 12 2
v 4 12 2
v -3 12 1
v 0 12 1
v 1 12 1
v 2 12 1
v 0 12 -0
v 1 12 -0
v 3 12 -1
v 4 12 -1
v -3 12 -2
v -2 12 -2
v 2 12 -2
v 3 12 -2
v -2 12 -3
v 2 12 -3
v -2 13 6
v -1 13 6
v 3 13 6
v 4 13 6
v -2 13 5
v -1 13 5
v -3 13 4
v -2 13 4
v -1 13 4
v -2 13 3
v -1 13 3
v 3 13 3
v 4 13 3
v -2 13 2
v 0 13 2
v 1 13 2
v 2 13 2
v -3 13 1
v 0 13 1
v 1 13 1
v 2 13 1
v 2 14 6
v 3 14 6
v -2 14 5
v -1 14 5
v -2 14 4
v -1 14 4
v -2 14 3
v -1 14 3
v 2 14 3
v 3 14 3
v -2 14 2
v 2 14 2
v 3 14 2
v -1 18 6
v 2 18 6
v -1 18 3
v 2 18 3

# faces
f 3/2/1 2/2/1 1/2/1
f 4/2/1 2/2/1 3/2/1
f 5/2/1 2/2/1 4/2/1
f 6/2/1 2/2/1 5/2/1
f 7/2/1 5/2/1 4/2/1
f 8/2/1 5/2/1 7/2/1
f 9/2/1 5/2/1 8/2/1
f 10/2/1 5/2/1 9/2/1
f 14/2/1 5/2/1 10/2/1
f 15/2/1 12/2/1 11/2/1
f 16/2/1 14/2/1 13/2/1
f 17/2/1 5/2/1 14/2/1
f 17/2/1 14/2/1 16/2/1
f 18/2/1 5/2/1 17/2/1
f 19/2/1 15/2/1 11/2/1
f 19/2/1 16/2/1 15/2/1
f 19/2/1 17/2/1 16/2/1
f 20/2/1 17/2/1 19/2/1
f 21/1/1 18/1/1 17/1/1
f 22/1/1 18/1/1 21/1/1
f 23/2/1 17/2/1 20/2/1
f 24/1/1 21/1/1 17/1/1
f 24/2/1 17/2/1 23/2/1
f 25/1/1 21/1/1 24/1/1
f 30/2/1 27/2/1 26/2/1
f 31/2/1 27/2/1 30/2/1
f 32/2/1 27/2/1 31/2/1
f 33/2/1 27/2/1 32/2/1
f 36/2/1 35/2/1 34/2/1
f 38/2/1 36/2/1 34/2/1
f 38/2/1 37/2/1 36/2/1
f 39/2/1 37/2/1 38/2/1
f 40/2/1 37/2/1 39/2/1
f 41/2/1 37/2/1 40/2/1
f 42/2/1 29/2/1 28/2/1
f 43/2/1 29/2/1 42/2/1
f 44/2/1 40/2/1 39/2/1
f 45/2/1 40/2/1 44/2/1
f 50/2/1 47/2/1 46/2/1
f 51/2/1 47/2/1 50/2/1
f 52/2/1 49/2/1 48/2/1
f 53/2/1 49/2/1 52/2/1
f 56/2/1 55/2/1 54/2/1
f 57/2/1 55/2/1 56/2/1
f 60/2/1 59/2/1 58/2/1
f 61/2/1 59/2/1 60/2/1
f 63/2/1 59/2/1 61/2/1
f 66/2/1 65/2/1 64/2/1
f 67/2/1 65/2/1 66/2/1
f 68/2/1 63/2/1 62/2/1
f 69/2/1 59/2/1 63/2/1
f 69/2/1 63/2/1 68/2/1
f 72/2/1 66/2/1 64/2/1
f 73/2/1 66/2/1 72/2/1
f 74/2/1 71/2/1 70/2/1
f 75/2/1 71/2/1 74/2/1
f 79/2/1 77/2/1 76/2/1
f 82/2/1 81/2/1 80/2/1
f 83/2/1 81/2/1 82/2/1
f 84/2/1 79/2/1 78/2/1
f 85/2/1 77/2/1 79/2/1
f 85/2/1 79/2/1 84/2/1
f 86/2/1 77/2/1 85/2/1
f 88/1/1 85/1/1 84/1/1
f 89/1/1 85/1/1 88/1/1
f 92/2/1 88/2/1 87/2/1
f 93/2/1 88/2/1 92/2/1
f 94/2/1 88/2/1 93/2/1
f 95/2/1 91/2/1 90/2/1
f 97/2/1 93/2/1 92/2/1
f 98/2/1 93/2/1 97/2/1
f 99/2/1 96/2/1 95/2/1
f 99/2/1 95/2/1 90/2/1
f 100/2/1 96/2/1 99/2/1
f 101/2/1 96/2/1 100/2/1
f 102/2/1 96/2/1 101/2/1
f 103/2/1 101/2/1 100/2/1
f 104/2/1 101/2/1 103/2/1
f 107/1/1 106/1/1 105/1/1
f 108/1/1 106/1/1 107/1/1
f 111/2/1 110/2/1 109/2/1
f 112/2/1 110/2/1 111/2/1
f 115/2/1 111/2/1 109/2/1
f 116/2/1 111/2/1 115/2/1
f 117/2/1 114/2/1 113/2/1
f 118/2/1 114/2/1 117/2/1
f 119/2/1 114/2/1 118/2/1
f 122/2/1 119/2/1 118/2/1
f 123/2/1 119/2/1 122/2/1
f 124/2/1 121/2/1 120/2/1
f 125/2/1 121/2/1 124/2/1
f 128/2/1 127/2/1 126/2/1
f 129/2/1 127/2/1 128/2/1
f 134/2/1 131/2/1 130/2/1
f 135/2/1 133/2/1 132/2/1
f 136/2/1 133/2/1 135/2/1
f 137/2/1 134/2/1 130/2/1
f 137/2/1 135/2/1 134/2/1
f 137/2/1 136/2/1 135/2/1
f 138/2/1 136/2/1 137/2/1
f 141/2/1 140/2/1 139/2/1
f 142/2/1 140/2/1 141/2/1
f 143/2/1 141/2/1 139/2/1
f 144/2/1 141/2/1 143/2/1
f 147/2/1 146/2/1 145/2/1
f 148/2/1 146/2/1 147/2/1
f 149/2/2 150/2/2 151/2/2
f 151/2/2 150/2/2 152/2/2
f 153/2/2 154/2/2 155/2/2
f 155/2/2 154/2/2 156/2/2
f 157/2/2 158/2/2 159/2/2
f 159/2/2 158/2/2 160/2/2
f 161/2/2 162/2/2 163/2/2
f 163/2/2 162/2/2 164/2/2
f 161/2/2 163/2/2 165/2/2
f 165/2/2 163/2/2 166/2/2
f 167/2/2 168/2/2 169/2/2
f 169/2/2 168/2/2 170/2/2
f 167/2/2 169/2/2 171/2/2
f 171/2/2 169/2/2 172/2/2
f 173/2/2 174/2/2 177/2/2
f 177/2/2 174/2/2 178/2/2
f 175/2/2 176/2/2 179/2/2
f 179/2/2 176/2/2 180/2/2
f 181/2/2 182/2/2 186/2/2
f 186/2/2 182/2/2 187/2/2
f 184/2/2 185/2/2 188/2/2
f 183/2/2 184/2/2 188/2/2
f 188/2/2 185/2/2 189/2/2
f 189/2/2 185/2/2 190/2/2
f 191/2/2 192/2/2 193/2/2
f 193/2/2 192/2/2 194/2/2
f 195/2/2 196/2/2 198/2/2
f 197/2/2 198/2/2 199/2/2
f 198/2/2 196/2/2 200/2/2
f 199/2/2 198/2/2 200/2/2
f 200/2/2 196/2/2 201/2/2
f 199/2/2 200/2/2 202/2/2
f 202/2/2 200/2/2 203/2/2
f 204/2/2 205/2/2 206/2/2
f 206/2/2 205/2/2 207/2/2
f 208/2/2 209/2/2 211/2/2
f 209/1/2 210/1/2 212/1/2
f 211/2/2 209/2/2 212/2/2
f 212/1/2 210/1/2 213/1/2
f 214/2/2 215/2/2 216/2/2
f 216/2/2 215/2/2 217/2/2
f 217/2/2 215/2/2 218/2/2
f 218/2/2 215/2/2 219/2/2
f 214/2/2 216/2/2 220/2/2
f 216/1/2 217/1/2 220/1/2
f 217/2/2 218/2/2 221/2/2
f 220/1/2 217/1/2 221/1/2
f 221/2/2 218/2/2 222/2/2
f 214/2/2 220/2/2 223/2/2
f 223/2/2 220/2/2 224/2/2
f 227/2/2 228/2/2 229/2/2
f 229/2/2 228/2/2 230/2/2
f 225/2/2 226/2/2 231/2/2
f 231/2/2 226/2/2 232/2/2
f 227/2/2 229/2/2 233/2/2
f 233/2/2 229/2/2 234/2/2
f 237/2/2 238/2/2 240/2/2
f 235/2/2 236/2/2 241/2/2
f 241/2/2 236/2/2 242/2/2
f 239/2/2 240/2/2 243/2/2
f 240/2/2 238/2/2 244/2/2
f 243/2/2 240/2/2 244/2/2
f 244/2/2 238/2/2 245/2/2
f 245/2/2 238/2/2 246/2/2
f 249/2/2 250/2/2 251/2/2
f 251/2/2 250/2/2 252/2/2
f 247/2/2 248/2/2 253/2/2
f 253/2/2 248/2/2 254/2/2
f 255/2/2 256/2/2 257/2/2
f 257/2/2 256/2/2 258/2/2
f 258/2/2 256/2/2 259/2/2
f 259/2/2 256/2/2 260/2/2
f 258/2/2 259/2/2 261/2/2
f 261/2/2 259/2/2 262/2/2
f 258/2/2 261/2/2 263/2/2
f 258/2/2 263/2/2 265/2/2
f 263/2/2 264/2/2 265/2/2
f 265/2/2 264/2/2 266/2/2
f 258/2/2 265/2/2 267/2/2
f 267/2/2 265/2/2 268/2/2
f 268/2/2 265/2/2 269/2/2
f 269/2/2 265/2/2 270/2/2
f 273/2/3 272/2/3 271/2/3
f 274/2/3 272/2/3 273/2/3
f 277/2/3 276/2/3 275/2/3
f 279/2/3 278/2/3 277/2/3
f 283/2/3 280/2/3 279/2/3
f 284/2/3 282/2/3 281/2/3
f 285/2/3 282/2/3 284/2/3
f 287/2/3 284/2/3 283/2/3
f 287/2/3 286/2/3 285/2/3
f 287/2/3 285/2/3 284/2/3
f 289/2/3 288/2/3 287/2/3
f 291/2/3 290/2/3 289/2/3
f 292/2/3 290/2/3 291/2/3
f 293/2/3 289/2/3 287/2/3
f 293/2/3 291/2/3 289/2/3
f 294/2/3 291/2/3 293/2/3
f 295/2/3 287/2/3 283/2/3
f 295/2/3 293/2/3 287/2/3
f 296/2/3 293/2/3 295/2/3
f 297/2/3 279/2/3 277/2/3
f 297/2/3 283/2/3 279/2/3
f 297/2/3 295/2/3 283/2/3
f 298/2/3 295/2/3 297/2/3
f 299/2/3 277/2/3 275/2/3
f 299/2/3 297/2/3 277/2/3
f 300/2/3 297/2/3 299/2/3
f 303/2/3 302/2/3 301/2/3
f 304/2/3 302/2/3 303/2/3
f 307/2/3 306/2/3 305/2/3
f 308/2/3 306/2/3 307/2/3
f 311/2/3 310/2/3 309/2/3
f 312/2/3 310/2/3 311/2/3
f 317/2/3 314/2/3 313/2/3
f 318/2/3 314/2/3 317/2/3
f 319/2/3 314/2/3 318/2/3
f 320/2/3 316/2/3 315/2/3
f 321/2/3 316/2/3 320/2/3
f 323/2/3 319/2/3 318/2/3
f 323/2/3 322/2/3 321/2/3
f 323/2/3 321/2/3 320/2/3
f 323/2/3 320/2/3 319/2/3
f 324/2/3 322/2/3 323/2/3
f 325/2/3 322/2/3 324/2/3
f 326/2/3 322/2/3 325/2/3
f 329/2/3 328/2/3 327/2/3
f 330/2/3 328/2/3 329/2/3
f 334/2/3 332/2/3 331/2/3
f 335/2/3 332/2/3 334/2/3
f 336/2/3 332/2/3 335/2/3
f 337/2/3 334/2/3 333/2/3
f 337/2/3 335/2/3 334/2/3
f 338/2/3 335/2/3 337/2/3
f 343/2/3 340/2/3 339/2/3
f 344/2/3 340/2/3 343/2/3
f 345/2/3 342/2/3 341/2/3
f 346/2/3 342/2/3 345/2/3
f 349/2/3 348/2/3 347/2/3
f 350/2/3 348/2/3 349/2/3
f 353/2/3 352/2/3 351/2/3
f 354/2/3 352/2/3 353/2/3
f 357/2/3 356/2/3 355/2/3
f 358/2/3 356/2/3 357/2/3
f 361/2/3 360/2/3 359/2/3
f 362/2/3 360/2/3 361/2/3
f 365/2/3 364/2/3 363/2/3
f 366/2/3 364/2/3 365/2/3
f 369/2/3 368/2/3 367/2/3
f 370/2/3 368/2/3 369/2/3
f 373/2/3 372/2/3 371/2/3
f 374/2/3 372/2/3 373/2/3
f 377/2/3 376/2/3 375/2/3
f 378/2/3 376/2/3 377/2/3
f 379/2/4 380/2/4 381/2/4
f 381/2/4 380/2/4 382/2/4
f 383/2/4 384/2/4 385/2/4
f 385/2/4 384/2/4 386/2/4
f 387/2/4 388/2/4 391/2/4
f 391/2/4 388/2/4 392/2/4
f 389/2/4 390/2/4 393/2/4
f 389/2/4 393/2/4 394/2/4
f 394/2/4 393/2/4 395/2/4
f 396/2/4 397/2/4 399/2/4
f 398/2/4 399/2/4 400/2/4
f 399/2/4 397/2/4 401/2/4
f 400/2/4 399/2/4 401/2/4
f 401/2/4 397/2/4 402/2/4
f 402/2/4 397/2/4 403/2/4
f 402/1/4 403/1/4 404/1/4
f 404/1/4 403/1/4 405/1/4
f 406/2/4 407/2/4 408/2/4
f 408/2/4 407/2/4 409/2/4
f 410/2/4 411/2/4 412/2/4
f 412/2/4 411/2/4 413/2/4
f 414/2/4 415/2/4 416/2/4
f 416/2/4 415/2/4 417/2/4
f 418/2/4 419/2/4 420/2/4
f 420/2/4 419/2/4 421/2/4
f 422/2/4 423/2/4 424/2/4
f 424/2/4 423/2/4 425/2/4
f 426/1/4 427/1/4 428/1/4
f 428/1/4 427/1/4 429/1/4
f 430/2/4 431/2/4 432/2/4
f 430/2/4 432/2/4 434/2/4
f 432/2/4 433/2/4 434/2/4
f 434/2/4 433/2/4 435/2/4
f 436/2/4 437/2/4 438/2/4
f 438/2/4 437/2/4 439/2/4
f 440/2/4 441/2/4 442/2/4
f 442/2/4 441/2/4 443/2/4
f 444/2/4 445/2/4 447/2/4
f 447/2/4 445/2/4 448/2/4
f 445/1/4 446/1/4 449/1/4
f 448/2/4 445/2/4 449/2/4
f 449/1/4 446/1/4 450/1/4
f 450/2/4 451/2/4 452/2/4
f 449/2/4 450/2/4 452/2/4
f 448/2/4 449/2/4 452/2/4
f 452/2/4 451/2/4 453/2/4
f 453/2/4 451/2/4 454/2/4
f 455/2/4 456/2/4 457/2/4
f 457/2/4 456/2/4 458/2/4
f 459/2/4 460/2/4 464/2/4
f 464/2/4 460/2/4 465/2/4
f 465/2/4 460/2/4 466/2/4
f 461/2/4 462/2/4 467/2/4
f 467/2/4 462/2/4 468/2/4
f 463/2/4 464/2/4 469/2/4
f 464/2/4 465/2/4 469/2/4
f 469/2/4 465/2/4 470/2/4
f 471/2/4 472/2/4 473/2/4
f 473/2/4 472/2/4 474/2/4
f 475/2/4 476/2/4 477/2/4
f 477/2/4 476/2/4 478/2/4
f 479/2/4 480/2/4 482/2/4
f 481/2/4 482/2/4 483/2/4
f 482/2/4 480/2/4 484/2/4
f 483/2/4 482/2/4 484/2/4
f 484/2/4 480/2/4 485/2/4
f 485/2/4 480/2/4 486/2/4
f 487/2/4 488/2/4 490/2/4
f 488/2/4 489/2/4 490/2/4
f 490/2/4 489/2/4 491/2/4
f 487/2/4 490/2/4 492/2/4
f 492/2/4 490/2/4 493/2/4
f 494/2/4 495/2/4 496/2/4
f 494/2/4 496/2/4 498/2/4
f 496/2/4 497/2/4 498/2/4
f 498/2/4 497/2/4 499/2/4
f 499/2/4 497/2/4 500/2/4
f 500/2/4 501/2/4 502/2/4
f 502/2/4 501/2/4 503/2/4
f 504/2/4 505/2/4 506/2/4
f 506/2/4 505/2/4 507/2/4
f 508/2/4 509/2/4 510/2/4
f 510/2/4 509/2/4 511/2/4
f 508/2/4 510/2/4 512/2/4
f 512/2/4 510/2/4 513/2/4
f 514/2/4 515/2/4 516/2/4
f 516/2/4 515/2/4 517/2/4
f 518/1/4 519/1/4 520/1/4
f 520/1/4 519/1/4 521/1/4
f 522/2/4 523/2/4 526/2/4
f 526/2/4 523/2/4 527/2/4
f 524/2/4 525/2/4 528/2/4
f 528/2/4 525/2/4 529/2/4
f 530/2/4 531/2/4 532/2/4
f 530/2/4 532/2/4 534/2/4
f 532/1/4 533/1/4 534/1/4
f 534/1/4 533/1/4 535/1/4
f 530/2/4 534/2/4 536/2/4
f 534/2/4 535/2/4 536/2/4
f 536/2/4 535/2/4 537/2/4
f 530/2/4 536/2/4 538/2/4
f 538/2/4 536/2/4 539/2/4
f 542/2/5 541/2/5 540/2/5
f 543/2/5 541/2/5 542/2/5
f 544/2/5 542/2/5 540/2/5
f 544/1/5 543/1/5 542/1/5
f 545/2/5 541/2/5 543/2/5
f 545/1/5 543/1/5 544/1/5
f 546/2/5 544/2/5 540/2/5
f 546/2/5 545/2/5 544/2/5
f 547/2/5 545/2/5 546/2/5
f 548/2/5 541/2/5 545/2/5
f 548/2/5 545/2/5 547/2/5
f 549/2/5 541/2/5 548/2/5
f 550/2/5 548/2/5 547/2/5
f 551/2/5 548/2/5 550/2/5
f 554/2/5 553/2/5 552/2/5
f 555/2/5 553/2/5 554/2/5
f 558/2/5 557/2/5 556/2/5
f 559/2/5 557/2/5 558/2/5
f 562/2/5 561/2/5 560/2/5
f 563/2/5 561/2/5 562/2/5
f 566/2/5 565/2/5 564/2/5
f 567/2/5 565/2/5 566/2/5
f 570/2/5 569/2/5 568/2/5
f 571/2/5 569/2/5 570/2/5
f 574/1/5 573/1/5 572/1/5
f 575/1/5 573/1/5 574/1/5
f 576/2/6 577/2/6 578/2/6
f 578/2/6 577/2/6 579/2/6
f 576/2/6 578/2/6 580/2/6
f 580/2/6 578/2/6 581/2/6
f 579/2/6 577/2/6 582/2/6
f 582/2/6 577/2/6 583/2/6
f 584/2/6 585/2/6 588/2/6
f 586/2/6 587/2/6 591/2/6
f 588/2/6 589/2/6 592/2/6
f 584/2/6 588/2/6 592/2/6
f 592/2/6 589/2/6 593/2/6
f 590/2/6 591/2/6 594/2/6
f 591/2/6 587/2/6 595/2/6
f 594/2/6 591/2/6 595/2/6
f 596/2/6 597/2/6 598/2/6
f 598/2/6 597/2/6 599/2/6
f 600/2/6 601/2/6 602/2/6
f 602/2/6 601/2/6 603/2/6
f 604/2/6 605/2/6 609/2/6
f 608/2/6 609/2/6 610/2/6
f 609/2/6 605/2/6 611/2/6
f 610/2/6 609/2/6 611/2/6
f 606/2/6 607/2/6 612/2/6
f 612/2/6 607/2/6 613/2/6
f 614/2/6 615/2/6 616/2/6
f 616/2/6 615/2/6 617/2/6
f 618/2/6 619/2/6 620/2/6
f 620/2/6 619/2/6 621/2/6
f 622/2/6 623/2/6 624/2/6
f 624/2/6 623/2/6 625/2/6
f 626/2/6 627/2/6 630/2/6
f 630/2/6 627/2/6 631/2/6
f 628/2/6 629/2/6 632/2/6
f 632/2/6 629/2/6 633/2/6
f 634/2/6 635/2/6 636/2/6
f 636/2/6 635/2/6 637/2/6
f 638/2/6 639/2/6 640/2/6
f 640/2/6 639/2/6 641/2/6
f 641/2/6 639/2/6 642/2/6
f 643/2/6 644/2/6 647/2/6
f 647/2/6 644/2/6 648/2/6
f 645/2/6 646/2/6 649/2/6
f 649/2/6 646/2/6 650/2/6
f 651/2/6 652/2/6 653/2/6
f 653/2/6 652/2/6 654/2/6
f 657/2/6 658/2/6 661/2/6
f 655/2/6 656/2/6 662/2/6
f 662/2/6 656/2/6 663/2/6
f 659/2/6 660/2/6 664/2/6
f 664/2/6 660/2/6 665/2/6
f 657/2/6 661/2/6 666/2/6
f 666/2/6 661/2/6 667/2/6
f 663/1/6 664/1/6 669/1/6
f 666/2/6 667/2/6 670/2/6
f 669/1/6 664/1/6 670/1/6
f 667/2/6 668/2/6 670/2/6
f 664/2/6 665/2/6 670/2/6
f 665/2/6 666/2/6 670/2/6
f 670/2/6 668/2/6 671/2/6
f 671/2/6 668/2/6 672/2/6
f 672/2/6 668/2/6 673/2/6
f 670/1/6 671/1/6 674/1/6
f 671/2/6 672/2/6 675/2/6
f 674/1/6 671/1/6 675/1/6
f 675/2/6 672/2/6 676/2/6
f 677/2/6 678/2/6 683/2/6
f 683/2/6 678/2/6 684/2/6
f 679/2/6 680/2/6 685/2/6
f 681/2/6 682/2/6 687/2/6
f 687/2/6 682/2/6 688/2/6
f 685/2/6 686/2/6 689/2/6
f 691/2/6 692/2/6 693/2/6
f 693/2/6 692/2/6 694/2/6
f 685/2/6 689/2/6 695/2/6
f 689/2/6 690/2/6 695/2/6
f 695/2/6 690/2/6 696/2/6
f 697/1/6 698/1/6 701/1/6
f 701/1/6 698/1/6 702/1/6
f 699/2/6 700/2/6 703/2/6
f 679/2/6 685/2/6 704/2/6
f 685/2/6 695/2/6 704/2/6
f 704/2/6 695/2/6 705/2/6
f 703/2/6 700/2/6 706/2/6
f 706/2/6 700/2/6 707/2/6
f 707/2/6 700/2/6 708/2/6
f 679/2/6 704/2/6 713/2/6
f 713/2/6 704/2/6 714/2/6
f 709/2/6 710/2/6 715/2/6
f 715/2/6 710/2/6 716/2/6
f 711/2/6 712/2/6 717/2/6
f 717/2/6 712/2/6 718/2/6
f 719/2/6 720/2/6 722/2/6
f 722/2/6 720/2/6 725/2/6
f 721/2/6 722/2/6 725/2/6
f 725/2/6 720/2/6 726/2/6
f 721/2/6 725/2/6 727/2/6
f 726/2/6 720/2/6 728/2/6
f 723/2/6 724/2/6 729/2/6
f 729/2/6 724/2/6 730/2/6
f 727/2/6 728/2/6 731/2/6
f 721/2/6 727/2/6 731/2/6
f 731/2/6 728/2/6 732/2/6
f 731/1/6 732/1/6 735/1/6
f 732/2/6 728/2/6 736/2/6
f 735/1/6 732/1/6 736/1/6
f 728/2/6 720/2/6 737/2/6
f 736/2/6 728/2/6 737/2/6
f 737/2/6 720/2/6 738/2/6
f 733/2/6 734/2/6 740/2/6
f 736/2/6 737/2/6 741/2/6
f 741/2/6 737/2/6 742/2/6
f 739/2/6 740/2/6 744/2/6
f 743/2/6 744/2/6 746/2/6
f 746/2/6 744/2/6 747/2/6
f 744/2/6 740/2/6 748/2/6
f 747/2/6 744/2/6 748/2/6
f 746/2/6 747/2/6 749/2/6
f 745/2/6 746/2/6 749/2/6
f 749/2/6 747/2/6 750/2/6
f 748/2/6 740/2/6 751/2/6
f 740/2/6 734/2/6 752/2/6
f 751/2/6 740/2/6 752/2/6
f 753/2/6 754/2/6 755/2/6
f 755/2/6 754/2/6 756/2/6
f 757/1/6 758/1/6 759/1/6
f 759/1/6 758/1/6 760/1/6
f 759/2/6 760/2/6 764/2/6
f 761/2/6 762/2/6 765/2/6
f 763/2/6 764/2/6 766/2/6
f 764/2/6 760/2/6 767/2/6
f 765/2/6 766/2/6 767/2/6
f 766/2/6 764/2/6 767/2/6
f 767/2/6 760/2/6 768/2/6
f 761/2/6 765/2/6 769/2/6
f 765/2/6 767/2/6 769/2/6
f 769/2/6 767/2/6 770/2/6
f 770/2/6 767/2/6 771/2/6
f 771/2/6 767/2/6 772/2/6
f 770/2/6 771/2/6 773/2/6
f 773/2/6 771/2/6 774/2/6
f 775/2/6 776/2/6 779/2/6
f 779/2/6 776/2/6 780/2/6
f 781/2/6 782/2/6 784/2/6
f 782/2/6 783/2/6 784/2/6
f 784/2/6 783/2/6 785/2/6
f 777/2/6 778/2/6 786/2/6
f 786/2/6 778/2/6 787/2/6
f 781/2/6 784/2/6 788/2/6
f 781/2/6 788/2/6 792/2/6
f 788/2/6 789/2/6 792/2/6
f 792/2/6 789/2/6 793/2/6
f 790/2/6 791/2/6 794/2/6
f 794/2/6 791/2/6 795/2/6
f 798/2/6 799/2/6 800/2/6
f 800/2/6 799/2/6 801/2/6
f 796/2/6 797/2/6 804/2/6
f 804/2/6 797/2/6 805/2/6
f 802/2/6 803/2/6 806/2/6
f 803/2/6 804/2/6 806/2/6
f 804/1/6 805/1/6 807/1/6
f 806/2/6 804/2/6 807/2/6
f 807/1/6 805/1/6 808/1/6
f 809/2/6 810/2/6 811/2/6
f 811/2/6 810/2/6 812/2/6
